<svg width="38" height="15" viewBox="0 0 38 15" fill="none" xmlns="http://www.w3.org/2000/svg">
<path d="M25.8536 7.85355C26.0488 7.65829 26.0488 7.34171 25.8536 7.14645L22.6716 3.96447C22.4763 3.7692 22.1597 3.7692 21.9645 3.96447C21.7692 4.15973 21.7692 4.47631 21.9645 4.67157L24.7929 7.5L21.9645 10.3284C21.7692 10.5237 21.7692 10.8403 21.9645 11.0355C22.1597 11.2308 22.4763 11.2308 22.6716 11.0355L25.8536 7.85355ZM12.5 7.5L12.5 8L25.5 8L25.5 7.5L25.5 7L12.5 7L12.5 7.5Z" fill="#A29279"/>
<path d="M25.5 14.5H30.6977C34.4389 14.5 37.5 11.3499 37.5 7.5C37.4945 5.64522 36.7761 3.86801 35.5016 2.55647C34.2271 1.24494 32.5001 0.505632 30.6977 0.5H25.5" stroke="#A29279" stroke-miterlimit="10" stroke-linecap="round"/>
<path d="M12.5 0.5H7.30234C3.5611 0.5 0.5 3.65005 0.5 7.5C0.505473 9.35478 1.2239 11.132 2.49841 12.4435C3.77291 13.7551 5.49993 14.4944 7.30234 14.5H12.5" stroke="#A29279" stroke-miterlimit="10" stroke-linecap="round"/>
</svg>
