<svg width="38" height="15" viewBox="0 0 38 15" fill="none" xmlns="http://www.w3.org/2000/svg">
<path d="M12.1464 7.85355C11.9512 7.65829 11.9512 7.34171 12.1464 7.14645L15.3284 3.96447C15.5237 3.7692 15.8403 3.7692 16.0355 3.96447C16.2308 4.15973 16.2308 4.47631 16.0355 4.67157L13.2071 7.5L16.0355 10.3284C16.2308 10.5237 16.2308 10.8403 16.0355 11.0355C15.8403 11.2308 15.5237 11.2308 15.3284 11.0355L12.1464 7.85355ZM25.5 7.5L25.5 8L12.5 8L12.5 7.5L12.5 7L25.5 7L25.5 7.5Z" fill="#A29279" fill-opacity="0.5"/>
<path d="M12.5 14.5H7.30235C3.56111 14.5 0.5 11.3499 0.5 7.5C0.505473 5.64522 1.2239 3.86801 2.49841 2.55647C3.77291 1.24494 5.49994 0.505632 7.30235 0.5H12.5" stroke="#A29279" stroke-opacity="0.5" stroke-miterlimit="10" stroke-linecap="round"/>
<path d="M25.5 0.5H30.6977C34.4389 0.5 37.5 3.65005 37.5 7.5C37.4945 9.35478 36.7761 11.132 35.5016 12.4435C34.2271 13.7551 32.5001 14.4944 30.6977 14.5H25.5" stroke="#A29279" stroke-opacity="0.5" stroke-miterlimit="10" stroke-linecap="round"/>
</svg>
