<svg width="599" height="804" viewBox="0 0 599 804" fill="none" xmlns="http://www.w3.org/2000/svg">
<path d="M418.493 73.7337C420.683 75.3179 423.771 77.2718 425.882 78.7768C451.03 97.0219 468.103 121.472 478.949 150.226C487.371 171.223 491.282 193.759 490.428 216.368C488.266 254.011 479.027 290.909 463.195 325.125C448.048 358.421 431.529 383.425 404.454 407.822C390.099 420.681 370.941 436.867 354.739 447.428C331.834 462.346 306.184 474.756 279.083 480.75C258.289 485.371 237.125 487.087 216.305 482.783C175.931 474.413 156.483 453.184 151.944 409.538C147.695 368.876 157.459 330.644 174.823 293.995C202.821 234.877 245.332 187.112 291.908 142.41C317.267 118.066 345.846 98.0253 375.454 79.3049C377.881 77.7735 380.283 76.2156 382.631 74.5522C383.133 74.1825 385.112 73.0472 387.038 71.7798C374.275 66.4341 360.914 62.6485 347.245 60.5053C331.342 57.5737 315.204 56.1066 299.033 56.1223C278.507 56.6687 258.026 58.3257 237.68 61.0862C215.619 64.9676 191.5 73.4433 169.571 82.9223C139.145 96.1242 113.76 117.089 89.0602 138.661C66.2805 161.025 47.864 187.439 34.753 216.552C26.3351 235.035 22.7991 247.419 15.6479 266.429L13.009 273.083C12.1399 275.122 10.9555 277.011 9.49933 278.681C9.11452 279.121 8.6429 279.478 8.11403 279.728C7.58516 279.978 7.0104 280.116 6.42578 280.133C5.84116 280.15 5.25933 280.047 4.71659 279.829C4.17385 279.611 3.68194 279.283 3.2717 278.866C1.80593 276.436 0.820386 273.746 0.368883 270.944C-0.293843 264.844 -0.0626794 258.68 1.05501 252.647C10.3701 197.198 32.721 160.233 68.9523 124.35C95.2088 98.4478 124.21 76.6381 157.644 61.6143C175.072 54.2976 193.222 48.8371 211.793 45.3231C225.83 42.4737 240.04 40.5597 254.331 39.5935C276.821 38.0008 299.414 38.6376 321.78 41.4945C346.585 42.8147 379.623 52.9539 402.291 62.8025C404.708 61.8238 407.046 60.6585 409.283 59.3172C441.398 41.4945 473.407 25.1769 508.266 14.2457C539.352 4.50266 571.044 -1.86065 603.687 0.489294C624.798 2.02072 644.246 6.24532 662.797 18.2063C671.027 22.4778 678.392 28.2439 684.515 35.2104C698.237 49.8118 702.459 58.2874 706.654 72.3607C708.505 78.7128 709.899 85.1896 710.824 91.7412C712.225 99.0449 713.107 106.439 713.463 113.868C714.873 133.439 713.505 153.112 709.399 172.299C706.661 186.4 702.984 200.302 698.395 213.912C695.756 221.648 692.8 229.279 689.449 236.751C661.134 299.725 635.3 336.875 587.115 395.175C558.747 429.5 530.01 463.587 500.64 497.067C473.302 528.171 444.486 557.981 417.095 589.059C392.421 617.073 367.854 645.299 345.001 674.845C331.058 692.178 322.769 713.375 321.252 735.574C320.588 745.647 323.521 755.628 329.529 763.738C335.536 771.848 344.228 777.559 354.053 779.853C388.358 788.355 421.158 782.863 452.059 766.651C484.86 749.409 504.097 721.58 511.855 685.67C514.471 674.553 512.674 662.853 506.842 653.035C500.218 641.972 490.824 635.609 477.445 635.688C454.282 635.548 431.721 643.067 413.268 657.075C406.777 661.922 399.68 665.899 392.157 668.904C389.908 669.566 387.525 669.63 385.244 669.089C383.613 668.827 382.133 667.981 381.079 666.708C380.026 665.435 379.471 663.823 379.518 662.171C379.478 659.884 379.862 657.61 380.652 655.464C385.93 643.319 395.773 636.058 407.7 631.173C430.698 621.837 455.796 618.917 480.321 622.724C517.08 628.004 534.971 655.2 527.16 691.664C520.669 721.949 502.857 744.762 479.661 763.799C450.841 787.353 415.364 801.269 378.224 803.59C354.844 805.122 331.702 802.93 312.254 787.141C295.312 773.463 287.844 755.958 292.33 733.726C296.073 713.076 305.173 693.772 318.719 677.749C359.937 630.433 401.974 583.831 443.958 537.149C480.321 496.751 517.608 457.145 553.338 416.219C573.34 393.327 591.733 368.956 609.545 344.321C631.039 314.002 648.38 280.941 661.108 246.019C669.346 223.7 675.125 200.547 678.34 176.973C681.645 153.965 681.173 130.571 676.941 107.715C670.45 73.3904 649.919 51.6337 618.623 38.5373C593.923 28.187 568.089 28.2398 542.255 30.6162C504.018 34.3391 469.001 48.5444 434.933 65.4165C430.447 67.6344 425.882 69.6674 421.369 71.8854C420.249 72.2031 419.248 72.8464 418.493 73.7337ZM473.909 215.76C473.909 208.367 474.226 200.948 473.909 193.555C471.508 147.348 443.193 106.422 404.771 81.0475C401.172 82.66 397.712 84.5676 394.427 86.7508C356.137 113.155 318.428 140.298 286.393 174.465C253.143 209.925 223.061 247.788 201.95 291.936C184.718 327.898 173.793 364.969 181.763 405.736C185.853 426.622 195.247 443.705 214.062 452.973C228.733 459.894 245.147 462.231 261.165 459.679C292.092 455.217 322.888 445.685 349.25 428.84C363.825 419.189 377.56 408.324 390.31 396.363C403.979 384.163 416.358 370.591 427.254 355.859C456.519 314.247 471.111 266.905 473.961 215.76H473.909Z" fill="#ECECEC"/>
</svg>
