<svg width="12" height="14" viewBox="0 0 12 14" fill="none" xmlns="http://www.w3.org/2000/svg">
<path d="M0 12.0833C0 12.7734 0.559896 13.3333 1.25 13.3333H10.4167C11.1068 13.3333 11.6667 12.7734 11.6667 12.0833V5H0V12.0833ZM1.66667 7.08333C1.66667 6.85417 1.85417 6.66667 2.08333 6.66667H4.58333C4.8125 6.66667 5 6.85417 5 7.08333V9.58333C5 9.8125 4.8125 10 4.58333 10H2.08333C1.85417 10 1.66667 9.8125 1.66667 9.58333V7.08333ZM10.4167 1.66667H9.16667V0.416667C9.16667 0.1875 8.97917 0 8.75 0H7.91667C7.6875 0 7.5 0.1875 7.5 0.416667V1.66667H4.16667V0.416667C4.16667 0.1875 3.97917 0 3.75 0H2.91667C2.6875 0 2.5 0.1875 2.5 0.416667V1.66667H1.25C0.559896 1.66667 0 2.22656 0 2.91667V4.16667H11.6667V2.91667C11.6667 2.22656 11.1068 1.66667 10.4167 1.66667Z" fill="#A29279"/>
</svg>
