<svg width="16" height="34" viewBox="0 0 16 34" fill="none" xmlns="http://www.w3.org/2000/svg">
<path d="M12.2199 21.7969H12.9694C13.317 21.7969 13.5988 22.0876 13.5988 22.446C13.5988 22.8044 13.317 23.0951 12.9694 23.0951H12.2199C11.8723 23.0951 11.5905 22.8044 11.5905 22.446C11.5905 22.0876 11.8723 21.7969 12.2199 21.7969ZM1.09791 8.79033C1.09791 7.97234 1.23519 7.16588 1.49742 6.40557C1.50678 6.36955 1.51921 6.3341 1.53487 6.29961C1.78175 5.61793 2.1298 4.97519 2.56991 4.39703V0.649068C2.56991 0.29062 2.85172 0 3.19931 0H12.8106C13.1582 0 13.44 0.29062 13.44 0.649068V4.40993C14.3846 5.65704 14.902 7.20231 14.902 8.79025C14.902 11.3984 13.5182 13.7383 11.4132 14.9775L11.1964 16.1215C11.1377 16.4312 10.8744 16.6462 10.5794 16.6462C10.5393 16.6462 10.4988 16.6422 10.458 16.634C10.1169 16.5653 9.89429 16.2244 9.96101 15.8725L10.0126 15.6002C9.79469 15.6686 9.57212 15.7261 9.34498 15.7724C9.00393 15.8418 8.67294 15.6132 8.60552 15.2615C8.5381 14.9099 8.75996 14.5685 9.10093 14.499C11.7329 13.9626 13.6432 11.5617 13.6432 8.79033C13.6432 7.67888 13.3332 6.59299 12.7595 5.66385C11.5515 6.943 9.802 7.90314 7.92797 8.29039C5.95033 8.69906 4.01375 8.44081 2.47935 7.58526C2.39832 7.97916 2.3567 8.38304 2.3567 8.79033C2.3567 11.5618 4.267 13.9626 6.89899 14.499C7.23996 14.5684 7.46183 14.9098 7.3944 15.2615C7.32698 15.6133 6.99544 15.8418 6.65494 15.7724C6.42772 15.7261 6.20508 15.6685 5.98723 15.6002L6.03884 15.8726C6.10547 16.2244 5.88298 16.5653 5.54177 16.634C5.20079 16.7029 4.87004 16.4733 4.80341 16.1214L4.58674 14.9775C2.48179 13.7383 1.09791 11.3985 1.09791 8.79033ZM3.82871 3.97757H12.1812V1.29814H3.82871V3.97757ZM2.88532 6.33207C5.45412 7.93405 9.10888 7.1434 11.3121 5.27571H3.50236C3.25989 5.6056 3.05337 5.95991 2.88532 6.33207ZM16 19.7493V28.1896C16 28.4397 15.8607 28.6676 15.6417 28.7754L10.6723 31.2214L10.6992 31.6272C10.7132 31.8385 10.6263 32.0437 10.4664 32.1767L8.44676 33.8562C8.33173 33.9519 8.19177 34 8.05165 34C8.03442 34 8.01719 33.9993 8.00004 33.9978C7.843 34.0112 7.68251 33.9636 7.55332 33.8561L5.53351 32.1766C5.37356 32.0436 5.28663 31.8384 5.30063 31.627L5.32754 31.2212L0.358285 28.7752C0.139333 28.6675 0 28.4396 0 28.1894V19.7491C0 19.503 0.135006 19.2781 0.348608 19.1682L3.51495 17.5402C3.60212 17.4953 3.69834 17.472 3.79574 17.472H5.4911L6.38414 16.6871C6.49798 16.5871 6.64274 16.5321 6.79238 16.5321H9.20762C9.35726 16.5321 9.50202 16.5871 9.61586 16.6871L10.509 17.4721L12.2044 17.472C12.3019 17.472 12.398 17.4954 12.4853 17.5402L15.6515 19.1682C15.8651 19.2782 16 19.5031 16 19.7493ZM6.04033 20.4794L5.31456 19.8415C5.1742 19.7182 5.0934 19.5376 5.0934 19.3475V18.7702H3.94389L1.25872 20.1509V27.7801L5.4199 29.8283L6.04033 20.4794ZM9.42098 31.3784L9.38802 30.8814C9.38739 30.8737 9.38692 30.8662 9.38652 30.8587L8.74564 21.1995H7.2542L6.61363 30.8521C6.61316 30.864 6.61238 30.8759 6.61127 30.8879L6.5787 31.3783L7.99988 32.56L9.42098 31.3784ZM9.6478 18.421L8.97576 17.8303H7.02416L6.35212 18.421V19.0479L7.09504 19.7008C7.09685 19.7024 7.09866 19.704 7.10039 19.7056L7.32336 19.9015H8.67633L9.64773 19.0479L9.6478 18.421ZM14.7412 20.1509L12.0562 18.7702H10.9065V19.3475C10.9065 19.5377 10.8257 19.7182 10.6854 19.8415L9.95959 20.4793L10.5799 29.8283L14.7412 27.78V20.1509Z" fill="#805C23"/>
</svg>
