<svg width="35" height="35" viewBox="0 0 35 35" fill="none" xmlns="http://www.w3.org/2000/svg">
<path d="M32.2656 0H2.73438C1.22363 0 0 1.22363 0 2.73438V32.2656C0 33.7764 1.22363 35 2.73438 35H32.2656C33.7764 35 35 33.7764 35 32.2656V2.73438C35 1.22363 33.7764 0 32.2656 0ZM32.9492 32.2656C32.9492 32.6416 32.6416 32.9492 32.2656 32.9492H2.73438C2.3584 32.9492 2.05078 32.6416 2.05078 32.2656V2.73438C2.05078 2.3584 2.3584 2.05078 2.73438 2.05078H32.2656C32.6416 2.05078 32.9492 2.3584 32.9492 2.73438V32.2656Z" fill="#A29279"/>
<path d="M19.8105 11.5322C20.5146 11.5322 21.2666 11.751 21.2666 11.751L21.7178 9.07129C21.7178 9.07129 20.7607 8.74316 18.4775 8.74316C17.0762 8.74316 16.2627 9.27637 15.668 10.0625C15.1074 10.8076 15.0869 12.0039 15.0869 12.7764V14.5332H13.2754V17.1514H15.0869V26.2432H18.4775V17.1514H21.1641L21.3623 14.5332H18.4775V12.4893C18.4775 11.7852 19.1064 11.5322 19.8105 11.5322Z" fill="#A29279"/>
</svg>
