<svg width="89" height="47" viewBox="0 0 89 47" fill="none" xmlns="http://www.w3.org/2000/svg">
<line y1="2" x2="61" y2="2" stroke="#A29279" stroke-width="2"/>
<line y1="24" x2="61" y2="24" stroke="#A29279" stroke-width="2"/>
<line y1="46" x2="61" y2="46" stroke="#A29279" stroke-width="2"/>
<path d="M69 1.88L82 1.94L81.94 1.98L82 1.96L82 3.82L70.86 8.4L70.86 8.42L82 13L82 14.76L69 14.82L69 13.34L80.14 13.28L80.14 13.26L69 8.76L69 7.54L80.14 3.02L69 2.98L69 1.88ZM68.8 21.7192C68.8 20.3859 69.2133 19.3392 70.04 18.5792C70.88 17.8192 72.1333 17.4392 73.8 17.4392C75.48 17.4392 76.8 17.8059 77.76 18.5392C78.72 19.2726 79.2 20.2726 79.2 21.5392C79.2 22.6859 78.8 23.5659 78 24.1792C77.2133 24.8059 76.0933 25.1192 74.64 25.1192C74.3867 25.1192 74.18 25.1059 74.02 25.0792C73.86 25.0526 73.76 25.0326 73.72 25.0192L73.72 18.9592C71.0267 18.9592 69.68 19.9326 69.68 21.8792C69.68 22.4126 69.7733 22.8659 69.96 23.2392C70.16 23.6259 70.3667 23.9259 70.58 24.1392C70.8067 24.3526 70.94 24.4592 70.98 24.4592L70.5 25.0392C70.4467 25.0392 70.2733 24.9126 69.98 24.6592C69.7 24.4059 69.4333 24.0326 69.18 23.5392C68.9267 23.0459 68.8 22.4392 68.8 21.7192ZM74.56 23.7592L74.94 23.7792C77.2067 23.7792 78.34 23.0326 78.34 21.5392C78.34 20.7526 78.0267 20.1459 77.4 19.7192C76.7867 19.2926 75.84 19.0459 74.56 18.9792L74.56 23.7592ZM79 27.2617L79 28.4617L78.04 28.6417C78.2933 28.8551 78.5467 29.1884 78.8 29.6417C79.0667 30.0951 79.2 30.7484 79.2 31.6017C79.2 32.5617 78.9267 33.3084 78.38 33.8417C77.8467 34.3751 77.0467 34.6417 75.98 34.6417L69 34.6417L69 33.1817L75.68 33.1817C76.5333 33.1817 77.1533 33.0084 77.54 32.6617C77.94 32.3151 78.14 31.8017 78.14 31.1217C78.14 30.6417 78.0667 30.2217 77.92 29.8617C77.7733 29.5017 77.6133 29.2151 77.44 29.0017C77.2667 28.8017 77.1667 28.7017 77.14 28.7017L69 28.7017L69 27.2617L79 27.2617ZM68.8 40.4161C68.8 39.4428 69.0667 38.6894 69.6 38.1561C70.1467 37.6228 70.9533 37.3561 72.02 37.3561L79 37.3561L79 38.8161L72.32 38.8161C70.68 38.8161 69.86 39.5094 69.86 40.8961C69.86 41.3761 69.9333 41.7894 70.08 42.1361C70.24 42.4828 70.4067 42.7561 70.58 42.9561C70.7533 43.1694 70.8533 43.2761 70.88 43.2761L79 43.2761L79 44.7361L69 44.7361L69 43.5161L69.96 43.3161C69.72 43.1428 69.4667 42.8228 69.2 42.3561C68.9333 41.8894 68.8 41.2428 68.8 40.4161Z" fill="#A29279"/>
</svg>
