<svg width="85" height="36" viewBox="0 0 85 36" fill="none" xmlns="http://www.w3.org/2000/svg">
<path d="M33.1693 0H2.21887C0.967197 0 0 1.0241 0 2.21888V33.1693C0 34.421 1.02409 35.3882 2.21887 35.3882H33.1693C34.421 35.3882 35.3882 34.3641 35.3882 33.1693V2.21888C35.3882 0.967206 34.421 0 33.1693 0ZM11.1513 27.1385L14.7925 20.8233L7.51003 8.19277H24.2369L20.5957 14.508L27.8781 27.1385H11.1513Z" fill="#00CC61"/>
<path d="M10.8672 10.1846L15.8739 18.8325L20.8806 10.1846H10.8672Z" fill="#00CC61"/>
<path d="M24.2366 8.25H7.50977L14.7922 20.8805L11.151 27.1958H27.8779L20.5954 14.5653L24.2366 8.25ZM10.8665 10.1844H20.8799L15.8732 18.8892L10.8665 10.1844Z" fill="white"/>
<path d="M41.3621 18.2063H46.1981C46.1412 18.7184 46.1412 19.1736 46.1412 19.5718C46.1412 20.7097 46.5395 21.5631 47.2791 22.0752C48.0187 22.5872 49.498 22.8148 51.6599 22.8148C53.5943 22.8148 54.9029 22.5303 55.6425 21.9614C56.3822 21.3924 56.7235 20.4821 56.7235 19.2873C56.7235 18.377 56.5528 17.6943 56.2684 17.2391C55.9839 16.784 55.4149 16.3857 54.6184 16.0444C53.6512 15.703 52.2858 15.3616 50.5221 15.0203C49.2704 14.8496 48.3601 14.6789 47.6773 14.5651C46.9946 14.4513 46.1981 14.1669 45.2878 13.8255C44.3775 13.4841 43.6379 13.029 43.1827 12.5738C42.7275 12.1187 42.3293 11.4359 41.931 10.5256C41.5897 9.67222 41.419 8.64813 41.419 7.45335C41.419 4.60864 42.2155 2.67425 43.7516 1.65015C45.3447 0.682949 48.0187 0.170898 51.8875 0.170898C55.3012 0.170898 57.7476 0.626054 59.1131 1.47947C60.4785 2.33288 61.2181 4.03971 61.2181 6.65684C61.2181 7.33957 61.1613 7.85161 61.1044 8.24987H56.439C56.439 8.02229 56.4959 7.68093 56.4959 7.16888C56.4959 6.14479 56.1546 5.40517 55.4718 4.95001C54.7891 4.49486 53.5374 4.26728 51.6599 4.26728C49.6686 4.26728 48.3032 4.49485 47.5636 5.0069C46.8239 5.51895 46.4257 6.31547 46.4257 7.51025C46.4257 8.53435 46.6532 9.27397 47.0515 9.78602C47.4498 10.2981 48.1894 10.6394 49.2135 10.867C49.5549 10.9239 50.8634 11.0946 53.1961 11.379C55.5287 11.6635 57.2356 12.0049 58.3166 12.46C59.5682 13.029 60.4216 13.8255 60.9337 14.9065C61.4457 15.9875 61.6733 17.296 61.6733 18.946C61.6733 21.9614 60.9337 24.0664 59.4544 25.2043C57.9752 26.3422 55.3581 26.9112 51.5461 26.9112C47.7342 26.9112 45.0602 26.3991 43.5241 25.4319C41.931 24.4647 41.1914 22.701 41.1914 20.0839C41.3052 19.458 41.3052 18.8322 41.3621 18.2063Z" fill="#666666"/>
<path d="M66.109 0.511719H84.7134V4.5512L71.3433 22.2453H84.9979V26.5123H65.3125V22.2453L78.7395 4.77878H66.109V0.511719Z" fill="#666666"/>
<path d="M47.3944 33.3393H49.6133V32.6565H47.3944V31.6325H49.6702V30.8359H46.541V35.3306H49.6702V34.5909H47.3944V33.3393Z" fill="#666666"/>
<path d="M52.5716 34.3065L51.4337 30.8359H50.5234L52.1165 35.3306H53.0268L54.6767 30.8359H53.7664L52.5716 34.3065Z" fill="#666666"/>
<path d="M56.3825 33.3393H58.6013V32.6565H56.3825V31.6325H58.6582V30.8359H55.5859V35.3306H58.7151V34.5909H56.3825V33.3393Z" fill="#666666"/>
<path d="M60.6486 30.8359H59.7383V35.3306H62.6399V34.5909H60.6486V30.8359Z" fill="#666666"/>
<path d="M67.1334 31.7465C67.0765 31.5758 67.0196 31.4051 66.9627 31.2913C66.9058 31.1776 66.792 31.1207 66.6214 31.0069C66.4507 30.95 66.28 30.8931 66.1093 30.8362C65.8817 30.7793 65.6542 30.7793 65.3697 30.7793C65.0852 30.7793 64.8008 30.7793 64.6301 30.8362C64.4025 30.8362 64.2318 30.8931 64.118 31.0069C63.9473 31.0638 63.8336 31.1776 63.7767 31.2913C63.7198 31.4051 63.606 31.5189 63.606 31.7465C63.5491 31.9172 63.5491 32.1448 63.4922 32.3154C63.4922 32.4861 63.4922 32.7706 63.4922 33.112C63.4922 33.4533 63.4922 33.6809 63.4922 33.9085C63.4922 34.0792 63.5491 34.3067 63.606 34.4774C63.6629 34.6481 63.7198 34.8188 63.7767 34.9326C63.8336 35.0464 63.9473 35.1033 64.118 35.217C64.2887 35.2739 64.4594 35.3308 64.6301 35.3877C64.8576 35.3877 65.0852 35.4446 65.3697 35.4446C65.5973 35.4446 65.768 35.4446 65.9386 35.4446C66.1093 35.4446 66.28 35.3877 66.3938 35.3877C66.5076 35.3308 66.6214 35.2739 66.7352 35.217C66.8489 35.1601 66.9058 35.1032 66.9627 34.9895C67.0196 34.8757 67.0765 34.8188 67.1334 34.705C67.1903 34.5912 67.1903 34.4774 67.2472 34.3067C67.2472 34.1361 67.3041 33.9654 67.3041 33.7947C67.3041 33.624 67.3041 33.4533 67.3041 33.1688C67.3041 32.8275 67.3041 32.5999 67.3041 32.3723C67.1903 32.0879 67.1903 31.9172 67.1334 31.7465ZM66.3938 33.5771C66.3938 33.7478 66.3369 33.7947 66.3369 33.9085C66.3369 34.0223 66.28 34.1361 66.28 34.2498C66.28 34.3636 66.1662 34.4205 66.1093 34.4774C66.0524 34.5343 65.9386 34.5912 65.8249 34.5912C65.7111 34.6481 65.5404 34.6481 65.3697 34.6481C65.1421 34.6481 64.9145 34.6481 64.8008 34.5912C64.687 34.5343 64.5732 34.4774 64.4594 34.3636C64.4025 34.2498 64.3456 34.1361 64.3456 34.0223C64.3456 33.9085 64.2887 33.6809 64.2887 33.4533V32.6568C64.2887 32.4292 64.2887 32.2585 64.3456 32.1448C64.3456 32.031 64.4025 31.9172 64.4594 31.8034C64.5163 31.6896 64.6301 31.6327 64.8008 31.5758C64.9145 31.5189 65.1421 31.5189 65.3697 31.5189C65.5973 31.5189 65.768 31.5189 65.9386 31.5758C66.0524 31.6327 66.1662 31.6896 66.28 31.8034C66.3369 31.9172 66.3938 32.031 66.3938 32.1448C66.3938 32.2585 66.4507 32.4292 66.4507 32.6568V33.4533L66.3938 33.5771Z" fill="#666666"/>
<path d="M73.621 33.3393H75.8399V32.6565H73.621V31.6325H75.8968V30.8359H72.7676V35.3306H75.8968V34.5909H73.621V33.3393Z" fill="#666666"/>
<path d="M84.8863 33.3395C84.8294 33.1689 84.6587 32.9982 84.4312 32.9413C84.2605 32.8844 83.9191 32.8275 83.5208 32.7706C83.1226 32.7137 82.895 32.7137 82.8381 32.6568C82.6674 32.5999 82.5536 32.543 82.4968 32.4861C82.4399 32.3723 82.383 32.2585 82.383 32.0879C82.383 31.8603 82.4399 31.7465 82.5536 31.6327C82.6674 31.5758 82.895 31.5189 83.2364 31.5189C83.5777 31.5189 83.7484 31.5758 83.9191 31.6327C84.0329 31.6896 84.0898 31.8603 84.0898 32.031C84.0898 32.1448 84.0898 32.2017 84.0898 32.2017H84.8863C84.8863 32.1448 84.8863 32.031 84.8863 31.9172C84.8863 31.462 84.7725 31.1776 84.5449 31.0069C84.3174 30.8362 83.8622 30.7793 83.2933 30.7793C82.6105 30.7793 82.1554 30.8931 81.8709 31.0638C81.5864 31.2345 81.4727 31.5758 81.4727 32.031C81.4727 32.2585 81.5295 32.4292 81.5864 32.543C81.6433 32.7137 81.7002 32.8275 81.814 32.8844C81.8709 32.9413 82.0416 33.0551 82.1554 33.112C82.3261 33.1689 82.4399 33.2257 82.5536 33.2257C82.6674 33.2257 82.8381 33.2826 83.0657 33.2826C83.3502 33.3395 83.5777 33.3964 83.7484 33.4533C83.8622 33.5102 83.976 33.5671 84.0329 33.6809C84.0898 33.7378 84.0898 33.8516 84.0898 34.0223C84.0898 34.2498 84.0329 34.3636 83.9191 34.4774C83.8053 34.5912 83.5777 34.6481 83.2364 34.6481C82.8381 34.6481 82.6105 34.5912 82.4968 34.5343C82.383 34.4774 82.3261 34.3067 82.3261 34.0792C82.3261 34.0223 82.3261 33.9085 82.3261 33.8516H81.4727C81.4727 33.9654 81.4727 34.0792 81.4727 34.1929C81.4727 34.6481 81.5864 34.9326 81.8709 35.1033C82.1554 35.2739 82.6105 35.3308 83.2364 35.3308C83.8622 35.3308 84.3174 35.217 84.6018 35.0464C84.8294 34.8757 85.0001 34.4774 85.0001 33.9654C85.0001 33.7378 84.9432 33.5102 84.8863 33.3395Z" fill="#666666"/>
<path d="M43.9785 30.8359H42.9544H41.7027H41.3613V31.5756H41.7596V35.3306H44.0354C44.6043 35.3306 45.0026 35.1599 45.1732 34.8754C45.4008 34.5909 45.4577 34.0789 45.4577 33.3393V32.7703C45.4577 32.0307 45.3439 31.5187 45.1732 31.2342C44.9457 31.0066 44.5474 30.8359 43.9785 30.8359ZM44.6043 33.5669C44.6043 33.9651 44.5474 34.2496 44.4905 34.3634C44.3767 34.5341 44.206 34.5909 43.9785 34.5909H42.6699V31.5756H43.0113H43.9785C44.206 31.5756 44.3767 31.6325 44.4905 31.8031C44.6043 31.9738 44.6043 32.2583 44.6043 32.5997V33.5669Z" fill="#666666"/>
<path d="M71.7433 31.6332C71.7433 31.4625 71.6864 31.3487 71.5726 31.178C71.5157 31.0642 71.345 30.9505 71.2312 30.9505C71.0606 30.8936 70.8899 30.8936 70.6054 30.8936H69.5813H68.3296H67.9883V31.6332H68.3296V35.3882H69.1831V33.9089H70.5485C70.833 33.9089 71.0606 33.9089 71.2312 33.852C71.4019 33.7952 71.5157 33.7383 71.6295 33.6245C71.7433 33.5107 71.8002 33.34 71.8002 33.2262C71.8002 33.0555 71.8571 32.8849 71.8571 32.6004V32.3728C71.8002 31.9745 71.8002 31.747 71.7433 31.6332ZM70.9468 32.6004C70.9468 32.828 70.8899 32.9417 70.833 33.0555C70.7761 33.1693 70.6623 33.1693 70.4347 33.1693H69.1262V31.5763H70.4347C70.6054 31.5763 70.7761 31.6332 70.833 31.747C70.8899 31.8608 70.8899 32.0314 70.8899 32.259V32.6004H70.9468Z" fill="#666666"/>
<path d="M80.505 34.5341V34.022C80.505 33.7375 80.4481 33.51 80.3343 33.4531C80.2205 33.3393 80.0499 33.2824 79.8223 33.2255C80.0499 33.1686 80.2774 33.1117 80.3912 32.941C80.505 32.7703 80.5619 32.5428 80.5619 32.2014V32.0876C80.5619 31.6325 80.4481 31.2911 80.2205 31.1204C79.993 30.9497 79.6516 30.8359 79.1965 30.8359H78.343H77.0345H76.75V31.5756H77.0345V35.3306H77.8879V33.5669H79.1965C79.424 33.5669 79.5378 33.6238 79.6516 33.6806C79.7085 33.7375 79.7654 33.9082 79.7654 34.0789V34.5909C79.7654 34.9323 79.7654 35.1599 79.8223 35.3306H80.6757C80.505 35.103 80.505 34.8185 80.505 34.5341ZM79.6516 32.3152C79.6516 32.5428 79.5947 32.6565 79.5378 32.7703C79.4809 32.8841 79.3102 32.8841 79.0827 32.8841H77.7741V31.5187H78.2293H79.0258C79.1964 31.5187 79.3671 31.5756 79.424 31.6325C79.4809 31.7462 79.5378 31.86 79.5378 32.0876H79.6516V32.3152Z" fill="#666666"/>
</svg>
