<svg width="36" height="36" viewBox="0 0 36 36" fill="none" xmlns="http://www.w3.org/2000/svg">
<path fill-rule="evenodd" clip-rule="evenodd" d="M25.2857 1H10.7143C5.34923 1 1 5.34923 1 10.7143V25.2857C1 30.6507 5.34923 35 10.7143 35H25.2857C30.6507 35 35 30.6507 35 25.2857V10.7143C35 5.34923 30.6507 1 25.2857 1Z" stroke="#A29279" stroke-width="2" stroke-linecap="round" stroke-linejoin="round"/>
<path fill-rule="evenodd" clip-rule="evenodd" d="M18 24C14.6862 24 12 21.3138 12 18C12 14.6862 14.6862 12 18 12C21.3138 12 24 14.6862 24 18C24 19.5912 23.3678 21.1174 22.2426 22.2426C21.1174 23.3678 19.5912 24 18 24Z" stroke="#A29279" stroke-width="2" stroke-linecap="round" stroke-linejoin="round"/>
<path d="M26.5 6C25.1193 6 24 7.11929 24 8.5C24 9.88071 25.1193 11 26.5 11C27.8807 11 29 9.88071 29 8.5C29 7.11929 27.8807 6 26.5 6Z" fill="#A29279"/>
</svg>
