<svg xmlns="http://www.w3.org/2000/svg" width="663" height="808" viewBox="0 0 663 808">
<g>
<path d="M 136.50 806.96 C79.43,801.13 29.54,774.68 4.06,736.74 L -0.00 730.69 L -0.00 652.46 L 0.00 574.24 L 6.99 560.10 C34.00,505.43 76.62,453.12 126.00,414.02 C166.37,382.06 230.90,346.23 284.00,326.31 C319.70,312.91 359.07,303.33 398.50,298.45 C416.21,296.26 460.34,295.40 476.64,296.93 C516.74,300.71 552.70,311.69 576.00,327.30 C593.89,339.28 610.08,361.52 614.47,380.12 C616.39,388.27 616.42,400.24 614.53,406.60 C612.68,412.83 607.85,418.00 603.88,418.00 C597.74,418.00 595.36,412.40 591.98,390.00 C589.31,372.31 587.68,366.06 583.40,357.00 C576.18,341.70 565.46,331.24 548.50,322.95 C529.86,313.84 510.63,309.06 478.13,305.46 C457.37,303.16 421.70,303.85 401.50,306.95 C353.60,314.30 307.38,329.56 254.50,355.48 C150.48,406.49 79.46,475.23 37.87,565.18 C25.77,591.35 20.45,610.34 17.90,636.50 C13.98,676.79 22.78,704.82 46.96,729.07 C58.11,740.25 66.20,745.75 85.02,754.94 C101.11,762.80 107.87,765.06 126.94,768.99 C150.66,773.87 169.48,775.33 200.50,774.70 C227.32,774.15 241.87,772.86 266.00,768.88 C301.02,763.12 349.86,750.39 381.44,738.81 C429.46,721.19 480.35,693.13 515.50,664.88 C528.20,654.67 553.45,629.54 566.11,614.50 C596.06,578.93 621.77,537.62 633.04,507.00 C637.31,495.38 642.47,474.85 644.59,461.00 C647.13,444.52 647.13,415.60 644.60,403.50 C635.86,361.67 604.49,316.21 567.55,291.86 C549.98,280.29 534.66,273.33 445.76,236.55 L 398.03 216.80 L 386.76 225.77 C340.05,262.98 286.84,291.35 236.42,305.92 C219.07,310.94 189.52,317.34 173.50,319.56 C157.92,321.71 130.01,321.04 116.01,318.17 L 106.52 316.23 L 89.02 333.29 C64.70,357.02 21.44,396.45 1.75,412.85 C0.10,414.23 0.00,413.63 0.00,402.32 L 0.00 390.32 L 36.25 356.43 C74.66,320.53 85.00,310.50 85.00,309.15 C85.00,308.69 80.04,305.08 73.98,301.12 C49.03,284.82 34.34,267.58 27.17,246.17 C24.87,239.32 24.59,236.91 24.57,223.50 C24.54,210.91 24.91,207.13 26.84,200.00 C36.21,165.40 67.68,129.17 104.94,110.10 C132.29,96.10 151.18,94.39 171.89,104.05 C191.49,113.19 200.09,124.78 203.01,146.00 C205.80,166.26 201.06,188.34 188.45,213.87 C178.38,234.26 172.72,241.96 138.68,281.50 C128.90,292.87 123.62,299.75 124.36,300.17 C126.54,301.41 141.97,303.96 151.31,304.61 C162.04,305.37 178.24,303.91 198.41,300.39 C247.20,291.85 294.28,273.23 333.75,246.86 C348.61,236.93 374.34,217.76 383.42,209.86 C383.95,209.40 383.09,208.08 381.42,206.78 C355.40,186.48 341.53,169.29 334.80,149.00 C331.91,140.28 331.65,138.39 331.60,126.00 C331.54,110.84 333.27,102.79 339.43,89.44 C357.73,49.83 407.90,9.09 447.84,1.41 C469.27,-2.71 489.09,2.93 502.28,16.92 C513.93,29.26 519.85,45.53 518.50,61.47 C516.05,90.41 500.63,120.87 473.92,149.54 C462.43,161.88 451.70,171.94 413.57,206.13 C412.42,207.16 429.09,215.04 446.00,221.46 C483.83,235.83 508.86,246.47 534.50,259.06 C566.68,274.87 584.36,286.70 603.87,305.50 C638.81,339.14 656.29,373.17 661.49,417.60 C667.79,471.41 653.35,529.86 620.86,582.17 C588.65,634.02 544.53,678.74 491.50,713.28 C452.46,738.71 394.31,765.69 347.00,780.34 C300.90,794.60 271.85,800.37 220.00,805.53 C201.60,807.37 149.26,808.26 136.50,806.96 ZM 112.09 281.25 C140.69,252.00 159.06,225.00 167.41,199.94 C171.82,186.71 174.41,169.44 173.74,157.69 C173.08,145.89 168.43,135.98 160.68,129.82 C145.11,117.44 127.00,115.13 107.30,123.02 C92.01,129.14 81.38,136.76 65.95,152.66 C50.99,168.07 44.60,178.41 39.34,195.71 C37.12,203.02 36.67,206.43 36.66,216.00 C36.64,226.58 36.90,228.21 39.93,236.29 C45.98,252.46 57.91,267.53 73.26,278.40 C81.59,284.30 96.95,292.99 99.05,293.00 C99.91,293.00 105.78,287.71 112.09,281.25 ZM 409.21 186.83 C427.98,171.06 456.04,142.60 464.25,131.00 C486.81,99.13 493.30,68.94 482.46,46.37 C478.43,37.98 471.02,30.63 462.25,26.32 C457.06,23.77 455.53,23.51 446.50,23.57 C437.79,23.64 435.34,24.08 427.50,26.94 C399.26,37.26 376.51,55.13 360.32,79.72 C347.73,98.85 343.24,120.10 347.49,140.50 C350.51,155.00 363.12,175.36 375.05,185.00 C381.36,190.09 393.30,197.99 394.71,198.00 C395.37,198.00 401.90,192.98 409.21,186.83 Z" fill="rgba(200,200,200,1)"/>
</g>
</svg>