<svg width="310" height="45" viewBox="0 0 310 45" fill="none" xmlns="http://www.w3.org/2000/svg">
<rect x="0.5" y="0.5" width="309" height="44" rx="22" fill="#FEF0F0" stroke="#FFC2C2"/>
<circle cx="23" cy="22" r="5" fill="#FF8F91"/>
<path d="M49.3858 21.288C49.3858 21.864 49.4605 22.4347 49.6098 23C49.7591 23.5547 49.9938 24.056 50.3138 24.504C50.6338 24.952 51.0445 25.3147 51.5458 25.592C52.0471 25.8587 52.6445 25.992 53.3378 25.992C54.0311 25.992 54.6285 25.8587 55.1298 25.592C55.6311 25.3147 56.0418 24.952 56.3618 24.504C56.6818 24.056 56.9165 23.5547 57.0658 23C57.2151 22.4347 57.2898 21.864 57.2898 21.288C57.2898 20.712 57.2151 20.1467 57.0658 19.592C56.9165 19.0267 56.6818 18.52 56.3618 18.072C56.0418 17.624 55.6311 17.2667 55.1298 17C54.6285 16.7227 54.0311 16.584 53.3378 16.584C52.6445 16.584 52.0471 16.7227 51.5458 17C51.0445 17.2667 50.6338 17.624 50.3138 18.072C49.9938 18.52 49.7591 19.0267 49.6098 19.592C49.4605 20.1467 49.3858 20.712 49.3858 21.288ZM47.8658 21.288C47.8658 20.5093 47.9778 19.7627 48.2018 19.048C48.4365 18.3227 48.7831 17.6827 49.2418 17.128C49.7005 16.5733 50.2711 16.1307 50.9538 15.8C51.6365 15.4693 52.4311 15.304 53.3378 15.304C54.2445 15.304 55.0391 15.4693 55.7218 15.8C56.4045 16.1307 56.9751 16.5733 57.4338 17.128C57.8925 17.6827 58.2338 18.3227 58.4578 19.048C58.6925 19.7627 58.8098 20.5093 58.8098 21.288C58.8098 22.0667 58.6925 22.8187 58.4578 23.544C58.2338 24.2587 57.8925 24.8933 57.4338 25.448C56.9751 26.0027 56.4045 26.4453 55.7218 26.776C55.0391 27.096 54.2445 27.256 53.3378 27.256C52.4311 27.256 51.6365 27.096 50.9538 26.776C50.2711 26.4453 49.7005 26.0027 49.2418 25.448C48.7831 24.8933 48.4365 24.2587 48.2018 23.544C47.9778 22.8187 47.8658 22.0667 47.8658 21.288ZM60.4381 18.728H61.7181V20.04H61.7501C62.3154 19.0373 63.2114 18.536 64.4381 18.536C64.9821 18.536 65.4354 18.6107 65.7981 18.76C66.1607 18.9093 66.4541 19.1173 66.6781 19.384C66.9021 19.6507 67.0567 19.9707 67.1421 20.344C67.2381 20.7067 67.2861 21.112 67.2861 21.56V27H65.9261V21.4C65.9261 20.888 65.7767 20.4827 65.4781 20.184C65.1794 19.8853 64.7687 19.736 64.2461 19.736C63.8301 19.736 63.4674 19.8 63.1581 19.928C62.8594 20.056 62.6087 20.2373 62.4061 20.472C62.2034 20.7067 62.0487 20.984 61.9421 21.304C61.8461 21.6133 61.7981 21.9547 61.7981 22.328V27H60.4381V18.728ZM69.4087 15.576H70.7687V27H69.4087V15.576ZM76.1236 28.104C75.9636 28.5093 75.8036 28.8507 75.6436 29.128C75.4942 29.4053 75.3236 29.6293 75.1316 29.8C74.9502 29.9813 74.7422 30.1093 74.5076 30.184C74.2836 30.2693 74.0222 30.312 73.7236 30.312C73.5636 30.312 73.4036 30.3013 73.2436 30.28C73.0836 30.2587 72.9289 30.2213 72.7796 30.168V28.92C72.8969 28.9733 73.0302 29.016 73.1796 29.048C73.3396 29.0907 73.4729 29.112 73.5796 29.112C73.8569 29.112 74.0862 29.0427 74.2676 28.904C74.4596 28.776 74.6036 28.5893 74.6996 28.344L75.2596 26.952L71.9796 18.728H73.5156L75.9316 25.496H75.9636L78.2836 18.728H79.7236L76.1236 28.104ZM92.4487 17.016C91.8727 17.5813 91.334 18.2533 90.8327 19.032C90.3314 19.8107 89.8834 20.6427 89.4887 21.528C89.1047 22.4133 88.79 23.3253 88.5447 24.264C88.2994 25.2027 88.15 26.1147 88.0967 27H86.5767C86.6407 26.04 86.7954 25.1067 87.0407 24.2C87.2967 23.2827 87.622 22.408 88.0167 21.576C88.4114 20.7333 88.8647 19.9387 89.3767 19.192C89.8994 18.4453 90.4594 17.7573 91.0567 17.128H85.1047V15.848H92.4487V17.016ZM93.8993 19.672C93.8673 19.096 93.926 18.5627 94.0753 18.072C94.2246 17.5813 94.454 17.16 94.7633 16.808C95.0833 16.4453 95.478 16.1627 95.9473 15.96C96.4166 15.7573 96.95 15.656 97.5473 15.656C98.038 15.656 98.4966 15.7307 98.9233 15.88C99.3606 16.0187 99.7393 16.2267 100.059 16.504C100.379 16.7707 100.63 17.1067 100.811 17.512C101.003 17.9173 101.099 18.3867 101.099 18.92C101.099 19.4213 101.019 19.864 100.859 20.248C100.71 20.632 100.507 20.9787 100.251 21.288C99.9953 21.5867 99.702 21.8587 99.3713 22.104C99.0406 22.3493 98.6993 22.584 98.3473 22.808C97.9953 23.0213 97.6433 23.2347 97.2913 23.448C96.9393 23.6507 96.614 23.8693 96.3153 24.104C96.0273 24.3387 95.7766 24.5947 95.5633 24.872C95.3606 25.1387 95.2273 25.448 95.1633 25.8H100.987V27H93.5793C93.6326 26.328 93.75 25.7573 93.9313 25.288C94.1233 24.808 94.3633 24.392 94.6513 24.04C94.9393 23.688 95.2646 23.3787 95.6273 23.112C95.99 22.8453 96.3686 22.5947 96.7633 22.36C97.2433 22.0613 97.6646 21.7893 98.0273 21.544C98.39 21.288 98.6886 21.032 98.9233 20.776C99.1686 20.52 99.35 20.2427 99.4673 19.944C99.5953 19.6453 99.6593 19.2987 99.6593 18.904C99.6593 18.5947 99.6006 18.3173 99.4833 18.072C99.366 17.816 99.206 17.5973 99.0033 17.416C98.8113 17.2347 98.582 17.096 98.3153 17C98.0486 16.904 97.766 16.856 97.4673 16.856C97.0726 16.856 96.7313 16.9413 96.4433 17.112C96.166 17.272 95.9366 17.4853 95.7553 17.752C95.574 18.0187 95.4406 18.3227 95.3553 18.664C95.2806 18.9947 95.2486 19.3307 95.2593 19.672H93.8993ZM113.179 21.384C113.072 20.8613 112.848 20.456 112.507 20.168C112.166 19.88 111.707 19.736 111.131 19.736C110.64 19.736 110.23 19.8267 109.899 20.008C109.568 20.1893 109.302 20.4293 109.099 20.728C108.907 21.0267 108.768 21.3733 108.683 21.768C108.598 22.152 108.555 22.552 108.555 22.968C108.555 23.352 108.598 23.7253 108.683 24.088C108.779 24.4507 108.923 24.776 109.115 25.064C109.307 25.3413 109.558 25.5653 109.867 25.736C110.176 25.9067 110.544 25.992 110.971 25.992C111.643 25.992 112.166 25.816 112.539 25.464C112.923 25.112 113.158 24.616 113.243 23.976H114.635C114.486 25 114.102 25.7893 113.483 26.344C112.875 26.8987 112.043 27.176 110.987 27.176C110.358 27.176 109.798 27.0747 109.307 26.872C108.827 26.6693 108.422 26.3813 108.091 26.008C107.771 25.6347 107.526 25.192 107.355 24.68C107.195 24.1573 107.115 23.5867 107.115 22.968C107.115 22.3493 107.195 21.7733 107.355 21.24C107.515 20.696 107.755 20.2267 108.075 19.832C108.406 19.4267 108.816 19.112 109.307 18.888C109.798 18.6533 110.368 18.536 111.019 18.536C111.488 18.536 111.926 18.5947 112.331 18.712C112.747 18.8187 113.11 18.9893 113.419 19.224C113.739 19.4587 114 19.7573 114.203 20.12C114.406 20.472 114.534 20.8933 114.587 21.384H113.179ZM117.149 22.872C117.149 23.3733 117.213 23.8213 117.341 24.216C117.479 24.6 117.666 24.9253 117.901 25.192C118.135 25.448 118.407 25.6453 118.717 25.784C119.037 25.9227 119.373 25.992 119.725 25.992C120.077 25.992 120.407 25.9227 120.717 25.784C121.037 25.6453 121.314 25.448 121.549 25.192C121.783 24.9253 121.965 24.6 122.093 24.216C122.231 23.8213 122.301 23.3733 122.301 22.872C122.301 22.3707 122.231 21.928 122.093 21.544C121.965 21.1493 121.783 20.8187 121.549 20.552C121.314 20.2853 121.037 20.0827 120.717 19.944C120.407 19.8053 120.077 19.736 119.725 19.736C119.373 19.736 119.037 19.8053 118.717 19.944C118.407 20.0827 118.135 20.2853 117.901 20.552C117.666 20.8187 117.479 21.1493 117.341 21.544C117.213 21.928 117.149 22.3707 117.149 22.872ZM115.709 22.872C115.709 22.264 115.794 21.6987 115.965 21.176C116.135 20.6427 116.391 20.184 116.733 19.8C117.074 19.4053 117.495 19.096 117.997 18.872C118.498 18.648 119.074 18.536 119.725 18.536C120.386 18.536 120.962 18.648 121.453 18.872C121.954 19.096 122.375 19.4053 122.717 19.8C123.058 20.184 123.314 20.6427 123.485 21.176C123.655 21.6987 123.741 22.264 123.741 22.872C123.741 23.48 123.655 24.0453 123.485 24.568C123.314 25.0907 123.058 25.5493 122.717 25.944C122.375 26.328 121.954 26.632 121.453 26.856C120.962 27.0693 120.386 27.176 119.725 27.176C119.074 27.176 118.498 27.0693 117.997 26.856C117.495 26.632 117.074 26.328 116.733 25.944C116.391 25.5493 116.135 25.0907 115.965 24.568C115.794 24.0453 115.709 23.48 115.709 22.872ZM125.12 21.912H129.744V23.192H125.12V21.912ZM132.555 22.872C132.555 23.3733 132.619 23.8213 132.747 24.216C132.886 24.6 133.072 24.9253 133.307 25.192C133.542 25.448 133.814 25.6453 134.123 25.784C134.443 25.9227 134.779 25.992 135.131 25.992C135.483 25.992 135.814 25.9227 136.123 25.784C136.443 25.6453 136.72 25.448 136.955 25.192C137.19 24.9253 137.371 24.6 137.499 24.216C137.638 23.8213 137.707 23.3733 137.707 22.872C137.707 22.3707 137.638 21.928 137.499 21.544C137.371 21.1493 137.19 20.8187 136.955 20.552C136.72 20.2853 136.443 20.0827 136.123 19.944C135.814 19.8053 135.483 19.736 135.131 19.736C134.779 19.736 134.443 19.8053 134.123 19.944C133.814 20.0827 133.542 20.2853 133.307 20.552C133.072 20.8187 132.886 21.1493 132.747 21.544C132.619 21.928 132.555 22.3707 132.555 22.872ZM131.115 22.872C131.115 22.264 131.2 21.6987 131.371 21.176C131.542 20.6427 131.798 20.184 132.139 19.8C132.48 19.4053 132.902 19.096 133.403 18.872C133.904 18.648 134.48 18.536 135.131 18.536C135.792 18.536 136.368 18.648 136.859 18.872C137.36 19.096 137.782 19.4053 138.123 19.8C138.464 20.184 138.72 20.6427 138.891 21.176C139.062 21.6987 139.147 22.264 139.147 22.872C139.147 23.48 139.062 24.0453 138.891 24.568C138.72 25.0907 138.464 25.5493 138.123 25.944C137.782 26.328 137.36 26.632 136.859 26.856C136.368 27.0693 135.792 27.176 135.131 27.176C134.48 27.176 133.904 27.0693 133.403 26.856C132.902 26.632 132.48 26.328 132.139 25.944C131.798 25.5493 131.542 25.0907 131.371 24.568C131.2 24.0453 131.115 23.48 131.115 22.872ZM148.943 27H147.503L145.823 20.424H145.791L144.127 27H142.655L139.999 18.728H141.503L143.375 25.496H143.407L145.071 18.728H146.559L148.287 25.496H148.319L150.175 18.728H151.583L148.943 27ZM152.876 18.728H154.156V20.04H154.188C154.753 19.0373 155.649 18.536 156.876 18.536C157.42 18.536 157.873 18.6107 158.236 18.76C158.598 18.9093 158.892 19.1173 159.116 19.384C159.34 19.6507 159.494 19.9707 159.58 20.344C159.676 20.7067 159.724 21.112 159.724 21.56V27H158.364V21.4C158.364 20.888 158.214 20.4827 157.916 20.184C157.617 19.8853 157.206 19.736 156.684 19.736C156.268 19.736 155.905 19.8 155.596 19.928C155.297 20.056 155.046 20.2373 154.844 20.472C154.641 20.7067 154.486 20.984 154.38 21.304C154.284 21.6133 154.236 21.9547 154.236 22.328V27H152.876V18.728ZM167.51 22.072C167.489 21.752 167.414 21.448 167.286 21.16C167.169 20.872 167.004 20.6267 166.79 20.424C166.588 20.2107 166.342 20.0453 166.054 19.928C165.777 19.8 165.468 19.736 165.126 19.736C164.774 19.736 164.454 19.8 164.166 19.928C163.889 20.0453 163.649 20.2107 163.446 20.424C163.244 20.6373 163.084 20.888 162.966 21.176C162.849 21.4533 162.78 21.752 162.758 22.072H167.51ZM168.822 24.376C168.641 25.304 168.241 26.0027 167.622 26.472C167.004 26.9413 166.225 27.176 165.286 27.176C164.625 27.176 164.049 27.0693 163.558 26.856C163.078 26.6427 162.673 26.344 162.342 25.96C162.012 25.576 161.761 25.1173 161.59 24.584C161.43 24.0507 161.34 23.4693 161.318 22.84C161.318 22.2107 161.414 21.6347 161.606 21.112C161.798 20.5893 162.065 20.136 162.406 19.752C162.758 19.368 163.169 19.0693 163.638 18.856C164.118 18.6427 164.641 18.536 165.206 18.536C165.942 18.536 166.55 18.6907 167.03 19C167.521 19.2987 167.91 19.6827 168.198 20.152C168.497 20.6213 168.7 21.1333 168.806 21.688C168.924 22.2427 168.972 22.7707 168.95 23.272H162.758C162.748 23.6347 162.79 23.9813 162.886 24.312C162.982 24.632 163.137 24.92 163.35 25.176C163.564 25.4213 163.836 25.6187 164.166 25.768C164.497 25.9173 164.886 25.992 165.334 25.992C165.91 25.992 166.38 25.8587 166.742 25.592C167.116 25.3253 167.361 24.92 167.478 24.376H168.822ZM170.312 18.728H171.592V20.472H171.624C171.955 19.8 172.36 19.304 172.84 18.984C173.32 18.664 173.928 18.5147 174.664 18.536V19.976C174.12 19.976 173.656 20.0507 173.272 20.2C172.888 20.3493 172.579 20.568 172.344 20.856C172.109 21.144 171.939 21.496 171.832 21.912C171.725 22.3173 171.672 22.7867 171.672 23.32V27H170.312V18.728ZM180.973 24.392C180.984 24.6907 181.053 24.9467 181.181 25.16C181.309 25.3627 181.475 25.528 181.677 25.656C181.891 25.7733 182.125 25.8587 182.381 25.912C182.648 25.9653 182.92 25.992 183.197 25.992C183.411 25.992 183.635 25.976 183.869 25.944C184.104 25.912 184.317 25.8533 184.509 25.768C184.712 25.6827 184.877 25.56 185.005 25.4C185.133 25.2293 185.197 25.016 185.197 24.76C185.197 24.408 185.064 24.1413 184.797 23.96C184.531 23.7787 184.195 23.6347 183.789 23.528C183.395 23.4107 182.963 23.3093 182.493 23.224C182.024 23.128 181.587 23 181.181 22.84C180.787 22.6693 180.456 22.4347 180.189 22.136C179.923 21.8373 179.789 21.4213 179.789 20.888C179.789 20.472 179.88 20.1147 180.061 19.816C180.253 19.5173 180.493 19.2773 180.781 19.096C181.08 18.904 181.411 18.7653 181.773 18.68C182.147 18.584 182.515 18.536 182.877 18.536C183.347 18.536 183.779 18.5787 184.173 18.664C184.568 18.7387 184.915 18.8773 185.213 19.08C185.523 19.272 185.768 19.5387 185.949 19.88C186.131 20.2107 186.237 20.6267 186.269 21.128H184.909C184.888 20.8613 184.819 20.6427 184.701 20.472C184.584 20.2907 184.435 20.1467 184.253 20.04C184.072 19.9333 183.869 19.8587 183.645 19.816C183.432 19.7627 183.213 19.736 182.989 19.736C182.787 19.736 182.579 19.752 182.365 19.784C182.163 19.816 181.976 19.8747 181.805 19.96C181.635 20.0347 181.496 20.1413 181.389 20.28C181.283 20.408 181.229 20.5787 181.229 20.792C181.229 21.0267 181.309 21.224 181.469 21.384C181.64 21.5333 181.853 21.6613 182.109 21.768C182.365 21.864 182.653 21.9493 182.973 22.024C183.293 22.088 183.613 22.1573 183.933 22.232C184.275 22.3067 184.605 22.3973 184.925 22.504C185.256 22.6107 185.544 22.7547 185.789 22.936C186.045 23.1067 186.248 23.3253 186.397 23.592C186.557 23.8587 186.637 24.1893 186.637 24.584C186.637 25.0853 186.531 25.5013 186.317 25.832C186.115 26.1627 185.843 26.4293 185.501 26.632C185.171 26.8347 184.792 26.9733 184.365 27.048C183.949 27.1333 183.533 27.176 183.117 27.176C182.659 27.176 182.221 27.128 181.805 27.032C181.389 26.936 181.021 26.7813 180.701 26.568C180.381 26.344 180.125 26.056 179.933 25.704C179.741 25.3413 179.635 24.904 179.613 24.392H180.973ZM188.221 15.576H189.581V27H188.221V15.576ZM192.68 22.872C192.68 23.3733 192.744 23.8213 192.872 24.216C193.011 24.6 193.197 24.9253 193.432 25.192C193.667 25.448 193.939 25.6453 194.248 25.784C194.568 25.9227 194.904 25.992 195.256 25.992C195.608 25.992 195.939 25.9227 196.248 25.784C196.568 25.6453 196.845 25.448 197.08 25.192C197.315 24.9253 197.496 24.6 197.624 24.216C197.763 23.8213 197.832 23.3733 197.832 22.872C197.832 22.3707 197.763 21.928 197.624 21.544C197.496 21.1493 197.315 20.8187 197.08 20.552C196.845 20.2853 196.568 20.0827 196.248 19.944C195.939 19.8053 195.608 19.736 195.256 19.736C194.904 19.736 194.568 19.8053 194.248 19.944C193.939 20.0827 193.667 20.2853 193.432 20.552C193.197 20.8187 193.011 21.1493 192.872 21.544C192.744 21.928 192.68 22.3707 192.68 22.872ZM191.24 22.872C191.24 22.264 191.325 21.6987 191.496 21.176C191.667 20.6427 191.923 20.184 192.264 19.8C192.605 19.4053 193.027 19.096 193.528 18.872C194.029 18.648 194.605 18.536 195.256 18.536C195.917 18.536 196.493 18.648 196.984 18.872C197.485 19.096 197.907 19.4053 198.248 19.8C198.589 20.184 198.845 20.6427 199.016 21.176C199.187 21.6987 199.272 22.264 199.272 22.872C199.272 23.48 199.187 24.0453 199.016 24.568C198.845 25.0907 198.589 25.5493 198.248 25.944C197.907 26.328 197.485 26.632 196.984 26.856C196.493 27.0693 195.917 27.176 195.256 27.176C194.605 27.176 194.029 27.0693 193.528 26.856C193.027 26.632 192.605 26.328 192.264 25.944C191.923 25.5493 191.667 25.0907 191.496 24.568C191.325 24.0453 191.24 23.48 191.24 22.872ZM202.764 18.728H204.412V19.928H202.764V25.064C202.764 25.224 202.774 25.352 202.796 25.448C202.828 25.544 202.881 25.6187 202.956 25.672C203.03 25.7253 203.132 25.7627 203.26 25.784C203.398 25.7947 203.574 25.8 203.788 25.8H204.412V27H203.372C203.02 27 202.716 26.9787 202.46 26.936C202.214 26.8827 202.012 26.792 201.852 26.664C201.702 26.536 201.59 26.3547 201.516 26.12C201.441 25.8853 201.404 25.576 201.404 25.192V19.928H199.996V18.728H201.404V16.248H202.764V18.728ZM206.754 24.392C206.765 24.6907 206.834 24.9467 206.962 25.16C207.09 25.3627 207.256 25.528 207.458 25.656C207.672 25.7733 207.906 25.8587 208.162 25.912C208.429 25.9653 208.701 25.992 208.978 25.992C209.192 25.992 209.416 25.976 209.65 25.944C209.885 25.912 210.098 25.8533 210.29 25.768C210.493 25.6827 210.658 25.56 210.786 25.4C210.914 25.2293 210.978 25.016 210.978 24.76C210.978 24.408 210.845 24.1413 210.578 23.96C210.312 23.7787 209.976 23.6347 209.57 23.528C209.176 23.4107 208.744 23.3093 208.274 23.224C207.805 23.128 207.368 23 206.962 22.84C206.568 22.6693 206.237 22.4347 205.97 22.136C205.704 21.8373 205.57 21.4213 205.57 20.888C205.57 20.472 205.661 20.1147 205.842 19.816C206.034 19.5173 206.274 19.2773 206.562 19.096C206.861 18.904 207.192 18.7653 207.554 18.68C207.928 18.584 208.296 18.536 208.658 18.536C209.128 18.536 209.56 18.5787 209.954 18.664C210.349 18.7387 210.696 18.8773 210.994 19.08C211.304 19.272 211.549 19.5387 211.73 19.88C211.912 20.2107 212.018 20.6267 212.05 21.128H210.69C210.669 20.8613 210.6 20.6427 210.482 20.472C210.365 20.2907 210.216 20.1467 210.034 20.04C209.853 19.9333 209.65 19.8587 209.426 19.816C209.213 19.7627 208.994 19.736 208.77 19.736C208.568 19.736 208.36 19.752 208.146 19.784C207.944 19.816 207.757 19.8747 207.586 19.96C207.416 20.0347 207.277 20.1413 207.17 20.28C207.064 20.408 207.01 20.5787 207.01 20.792C207.01 21.0267 207.09 21.224 207.25 21.384C207.421 21.5333 207.634 21.6613 207.89 21.768C208.146 21.864 208.434 21.9493 208.754 22.024C209.074 22.088 209.394 22.1573 209.714 22.232C210.056 22.3067 210.386 22.3973 210.706 22.504C211.037 22.6107 211.325 22.7547 211.57 22.936C211.826 23.1067 212.029 23.3253 212.178 23.592C212.338 23.8587 212.418 24.1893 212.418 24.584C212.418 25.0853 212.312 25.5013 212.098 25.832C211.896 26.1627 211.624 26.4293 211.282 26.632C210.952 26.8347 210.573 26.9733 210.146 27.048C209.73 27.1333 209.314 27.176 208.898 27.176C208.44 27.176 208.002 27.128 207.586 27.032C207.17 26.936 206.802 26.7813 206.482 26.568C206.162 26.344 205.906 26.056 205.714 25.704C205.522 25.3413 205.416 24.904 205.394 24.392H206.754ZM218.328 18.728H219.608V20.472H219.64C219.97 19.8 220.376 19.304 220.856 18.984C221.336 18.664 221.944 18.5147 222.68 18.536V19.976C222.136 19.976 221.672 20.0507 221.288 20.2C220.904 20.3493 220.594 20.568 220.36 20.856C220.125 21.144 219.954 21.496 219.848 21.912C219.741 22.3173 219.688 22.7867 219.688 23.32V27H218.328V18.728ZM229.166 22.072C229.145 21.752 229.07 21.448 228.942 21.16C228.825 20.872 228.66 20.6267 228.446 20.424C228.244 20.2107 227.998 20.0453 227.71 19.928C227.433 19.8 227.124 19.736 226.782 19.736C226.43 19.736 226.11 19.8 225.822 19.928C225.545 20.0453 225.305 20.2107 225.102 20.424C224.9 20.6373 224.74 20.888 224.622 21.176C224.505 21.4533 224.436 21.752 224.414 22.072H229.166ZM230.478 24.376C230.297 25.304 229.897 26.0027 229.278 26.472C228.66 26.9413 227.881 27.176 226.942 27.176C226.281 27.176 225.705 27.0693 225.214 26.856C224.734 26.6427 224.329 26.344 223.998 25.96C223.668 25.576 223.417 25.1173 223.246 24.584C223.086 24.0507 222.996 23.4693 222.974 22.84C222.974 22.2107 223.07 21.6347 223.262 21.112C223.454 20.5893 223.721 20.136 224.062 19.752C224.414 19.368 224.825 19.0693 225.294 18.856C225.774 18.6427 226.297 18.536 226.862 18.536C227.598 18.536 228.206 18.6907 228.686 19C229.177 19.2987 229.566 19.6827 229.854 20.152C230.153 20.6213 230.356 21.1333 230.462 21.688C230.58 22.2427 230.628 22.7707 230.606 23.272H224.414C224.404 23.6347 224.446 23.9813 224.542 24.312C224.638 24.632 224.793 24.92 225.006 25.176C225.22 25.4213 225.492 25.6187 225.822 25.768C226.153 25.9173 226.542 25.992 226.99 25.992C227.566 25.992 228.036 25.8587 228.398 25.592C228.772 25.3253 229.017 24.92 229.134 24.376H230.478ZM232.016 18.728H233.296V19.944H233.328C233.947 19.0053 234.838 18.536 236 18.536C236.512 18.536 236.976 18.6427 237.392 18.856C237.808 19.0693 238.102 19.432 238.272 19.944C238.55 19.496 238.912 19.1493 239.36 18.904C239.819 18.6587 240.32 18.536 240.864 18.536C241.28 18.536 241.654 18.584 241.984 18.68C242.326 18.7653 242.614 18.904 242.848 19.096C243.094 19.288 243.28 19.5387 243.408 19.848C243.547 20.1467 243.616 20.5093 243.616 20.936V27H242.256V21.576C242.256 21.32 242.235 21.08 242.192 20.856C242.15 20.632 242.07 20.44 241.952 20.28C241.835 20.1093 241.67 19.976 241.456 19.88C241.254 19.784 240.987 19.736 240.656 19.736C239.984 19.736 239.456 19.928 239.072 20.312C238.688 20.696 238.496 21.208 238.496 21.848V27H237.136V21.576C237.136 21.3093 237.11 21.064 237.056 20.84C237.014 20.616 236.934 20.424 236.816 20.264C236.699 20.0933 236.539 19.9653 236.336 19.88C236.144 19.784 235.894 19.736 235.584 19.736C235.19 19.736 234.848 19.816 234.56 19.976C234.283 20.136 234.054 20.328 233.872 20.552C233.702 20.776 233.574 21.0107 233.488 21.256C233.414 21.4907 233.376 21.688 233.376 21.848V27H232.016V18.728ZM252.985 26.968C252.75 27.1067 252.425 27.176 252.009 27.176C251.657 27.176 251.374 27.08 251.161 26.888C250.958 26.6853 250.857 26.36 250.857 25.912C250.483 26.36 250.046 26.6853 249.545 26.888C249.054 27.08 248.521 27.176 247.945 27.176C247.571 27.176 247.214 27.1333 246.873 27.048C246.542 26.9627 246.254 26.8293 246.009 26.648C245.763 26.4667 245.566 26.232 245.417 25.944C245.278 25.6453 245.209 25.288 245.209 24.872C245.209 24.4027 245.289 24.0187 245.449 23.72C245.609 23.4213 245.817 23.1813 246.073 23C246.339 22.808 246.638 22.664 246.969 22.568C247.31 22.472 247.657 22.392 248.009 22.328C248.382 22.2533 248.734 22.2 249.065 22.168C249.406 22.1253 249.705 22.072 249.961 22.008C250.217 21.9333 250.419 21.832 250.569 21.704C250.718 21.5653 250.793 21.368 250.793 21.112C250.793 20.8133 250.734 20.5733 250.617 20.392C250.51 20.2107 250.366 20.072 250.185 19.976C250.014 19.88 249.817 19.816 249.593 19.784C249.379 19.752 249.166 19.736 248.953 19.736C248.377 19.736 247.897 19.848 247.513 20.072C247.129 20.2853 246.921 20.696 246.889 21.304H245.529C245.55 20.792 245.657 20.36 245.849 20.008C246.041 19.656 246.297 19.3733 246.617 19.16C246.937 18.936 247.299 18.776 247.705 18.68C248.121 18.584 248.563 18.536 249.033 18.536C249.406 18.536 249.774 18.5627 250.137 18.616C250.51 18.6693 250.846 18.7813 251.145 18.952C251.443 19.112 251.683 19.3413 251.865 19.64C252.046 19.9387 252.137 20.328 252.137 20.808V25.064C252.137 25.384 252.153 25.6187 252.185 25.768C252.227 25.9173 252.355 25.992 252.569 25.992C252.686 25.992 252.825 25.9653 252.985 25.912V26.968ZM250.777 22.728C250.606 22.856 250.382 22.952 250.105 23.016C249.827 23.0693 249.534 23.1173 249.225 23.16C248.926 23.192 248.622 23.2347 248.313 23.288C248.003 23.3307 247.726 23.4053 247.481 23.512C247.235 23.6187 247.033 23.7733 246.873 23.976C246.723 24.168 246.649 24.4347 246.649 24.776C246.649 25 246.691 25.192 246.777 25.352C246.873 25.5013 246.99 25.624 247.129 25.72C247.278 25.816 247.449 25.8853 247.641 25.928C247.833 25.9707 248.035 25.992 248.249 25.992C248.697 25.992 249.081 25.9333 249.401 25.816C249.721 25.688 249.982 25.5333 250.185 25.352C250.387 25.16 250.537 24.9573 250.633 24.744C250.729 24.52 250.777 24.312 250.777 24.12V22.728ZM254.251 18.728H255.531V20.04H255.563C256.128 19.0373 257.024 18.536 258.251 18.536C258.795 18.536 259.248 18.6107 259.611 18.76C259.973 18.9093 260.267 19.1173 260.491 19.384C260.715 19.6507 260.869 19.9707 260.955 20.344C261.051 20.7067 261.099 21.112 261.099 21.56V27H259.739V21.4C259.739 20.888 259.589 20.4827 259.291 20.184C258.992 19.8853 258.581 19.736 258.059 19.736C257.643 19.736 257.28 19.8 256.971 19.928C256.672 20.056 256.421 20.2373 256.219 20.472C256.016 20.7067 255.861 20.984 255.755 21.304C255.659 21.6133 255.611 21.9547 255.611 22.328V27H254.251V18.728ZM264.581 17.24H263.221V15.576H264.581V17.24ZM263.221 18.728H264.581V27H263.221V18.728ZM266.688 18.728H267.968V20.04H268C268.565 19.0373 269.461 18.536 270.688 18.536C271.232 18.536 271.685 18.6107 272.048 18.76C272.411 18.9093 272.704 19.1173 272.928 19.384C273.152 19.6507 273.307 19.9707 273.392 20.344C273.488 20.7067 273.536 21.112 273.536 21.56V27H272.176V21.4C272.176 20.888 272.027 20.4827 271.728 20.184C271.429 19.8853 271.019 19.736 270.496 19.736C270.08 19.736 269.717 19.8 269.408 19.928C269.109 20.056 268.859 20.2373 268.656 20.472C268.453 20.7067 268.299 20.984 268.192 21.304C268.096 21.6133 268.048 21.9547 268.048 22.328V27H266.688V18.728ZM282.715 26.296C282.715 27.6507 282.405 28.664 281.787 29.336C281.168 30.008 280.197 30.344 278.875 30.344C278.491 30.344 278.096 30.3013 277.691 30.216C277.296 30.1307 276.933 29.992 276.603 29.8C276.283 29.608 276.016 29.3573 275.803 29.048C275.589 28.7387 275.472 28.36 275.451 27.912H276.811C276.821 28.1573 276.896 28.3653 277.035 28.536C277.184 28.7067 277.36 28.8453 277.563 28.952C277.776 29.0587 278.005 29.1333 278.251 29.176C278.496 29.2293 278.731 29.256 278.955 29.256C279.403 29.256 279.781 29.176 280.091 29.016C280.4 28.8667 280.656 28.6533 280.859 28.376C281.061 28.1093 281.205 27.784 281.291 27.4C281.387 27.016 281.435 26.5947 281.435 26.136V25.592H281.403C281.168 26.104 280.811 26.4827 280.331 26.728C279.861 26.9627 279.36 27.08 278.827 27.08C278.208 27.08 277.669 26.968 277.211 26.744C276.752 26.52 276.368 26.2213 276.059 25.848C275.749 25.464 275.515 25.0213 275.355 24.52C275.205 24.008 275.131 23.4693 275.131 22.904C275.131 22.4133 275.195 21.912 275.323 21.4C275.451 20.8773 275.664 20.408 275.963 19.992C276.261 19.5653 276.656 19.2187 277.147 18.952C277.637 18.6747 278.24 18.536 278.955 18.536C279.477 18.536 279.957 18.6533 280.395 18.888C280.832 19.112 281.173 19.4533 281.419 19.912H281.435V18.728H282.715V26.296ZM278.907 25.896C279.355 25.896 279.733 25.8053 280.043 25.624C280.363 25.432 280.619 25.1867 280.811 24.888C281.003 24.5787 281.141 24.232 281.227 23.848C281.323 23.464 281.371 23.08 281.371 22.696C281.371 22.3333 281.328 21.976 281.243 21.624C281.157 21.272 281.019 20.9573 280.827 20.68C280.645 20.392 280.405 20.1627 280.107 19.992C279.808 19.8213 279.445 19.736 279.019 19.736C278.581 19.736 278.208 19.8213 277.899 19.992C277.589 20.152 277.333 20.3707 277.131 20.648C276.939 20.9253 276.795 21.2453 276.699 21.608C276.613 21.9707 276.571 22.3493 276.571 22.744C276.571 23.1173 276.608 23.4907 276.683 23.864C276.757 24.2373 276.885 24.5787 277.067 24.888C277.248 25.1867 277.488 25.432 277.787 25.624C278.085 25.8053 278.459 25.896 278.907 25.896Z" fill="#E9323D"/>
</svg>
