<svg width="29" height="26" viewBox="0 0 29 26" fill="none" xmlns="http://www.w3.org/2000/svg">
<path d="M24.1415 6.19043H20.4582C20.1177 6.19043 19.8391 6.469 19.8391 6.80948C19.8391 7.14995 20.1177 7.42852 20.4582 7.42852H22.5939L19.4368 10.5857L18.3844 9.56424C17.8891 9.069 17.1463 9.069 16.651 9.56424L11.451 14.7642L9.68676 13C9.22247 12.5357 8.41771 12.5357 7.95342 13L4.92009 16.0333C4.67247 16.2809 4.67247 16.6523 4.92009 16.9C5.0439 17.0238 5.19866 17.0857 5.35342 17.0857C5.50818 17.0857 5.66295 17.0238 5.78676 16.9L8.82009 13.8666L11.0177 16.0642C11.2653 16.3119 11.6368 16.3119 11.8844 16.0642L17.5177 10.4309L19.0034 11.8857C19.251 12.1333 19.6225 12.1333 19.8701 11.8857L23.5225 8.23329V10.4928C23.5225 10.8333 23.801 11.1119 24.1415 11.1119C24.482 11.1119 24.7606 10.8333 24.7606 10.4928V6.80948C24.7606 6.469 24.482 6.19043 24.1415 6.19043Z" fill="#805C23"/>
<path d="M25.381 0H3.09524C1.39286 0 0 1.39286 0 3.09524V22.9048C0 24.6071 1.39286 26 3.09524 26H25.381C27.0833 26 28.4762 24.6071 28.4762 22.9048V3.09524C28.4762 1.39286 27.0833 0 25.381 0ZM27.2381 22.9048C27.2381 23.9262 26.4024 24.7619 25.381 24.7619H3.09524C2.07381 24.7619 1.2381 23.9262 1.2381 22.9048V3.09524C1.2381 2.07381 2.07381 1.2381 3.09524 1.2381H25.381C26.4024 1.2381 27.2381 2.07381 27.2381 3.09524V22.9048Z" fill="#805C23"/>
<path d="M3.43757 17.5187L2.81853 18.1378C2.57091 18.3854 2.57091 18.7568 2.81853 19.0044C2.94234 19.1282 3.0971 19.1902 3.25186 19.1902C3.40662 19.1902 3.56138 19.1282 3.68519 19.0044L4.30424 18.3854C4.55186 18.1378 4.55186 17.7663 4.30424 17.5187C4.05662 17.2711 3.68519 17.2711 3.43757 17.5187Z" fill="#805C23"/>
</svg>
