<svg width="378" height="45" viewBox="0 0 378 45" fill="none" xmlns="http://www.w3.org/2000/svg">
<rect x="0.5" y="0.5" width="377" height="44" rx="9.5" fill="white" stroke="#A29279"/>
<path d="M20.6681 24.668C20.6681 25.0507 20.7334 25.3773 20.8641 25.648C20.9947 25.9187 21.1767 26.1427 21.4101 26.32C21.6434 26.488 21.9094 26.614 22.2081 26.698C22.5161 26.7727 22.8474 26.81 23.2021 26.81C23.5847 26.81 23.9114 26.768 24.1821 26.684C24.4527 26.5907 24.6721 26.474 24.8401 26.334C25.0081 26.194 25.1294 26.0353 25.2041 25.858C25.2787 25.6713 25.3161 25.4847 25.3161 25.298C25.3161 24.9153 25.2274 24.6353 25.0501 24.458C24.8821 24.2713 24.6954 24.1407 24.4901 24.066C24.1354 23.9353 23.7201 23.814 23.2441 23.702C22.7774 23.5807 22.1987 23.4267 21.5081 23.24C21.0787 23.128 20.7194 22.9833 20.4301 22.806C20.1501 22.6193 19.9261 22.414 19.7581 22.19C19.5901 21.966 19.4687 21.728 19.3941 21.476C19.3287 21.224 19.2961 20.9673 19.2961 20.706C19.2961 20.202 19.3987 19.768 19.6041 19.404C19.8187 19.0307 20.0987 18.7227 20.4441 18.48C20.7894 18.2373 21.1814 18.06 21.6201 17.948C22.0587 17.8267 22.5021 17.766 22.9501 17.766C23.4727 17.766 23.9627 17.836 24.4201 17.976C24.8867 18.1067 25.2927 18.3073 25.6381 18.578C25.9927 18.8487 26.2727 19.1847 26.4781 19.586C26.6834 19.978 26.7861 20.4353 26.7861 20.958H25.0361C24.9894 20.314 24.7701 19.8613 24.3781 19.6C23.9861 19.3293 23.4867 19.194 22.8801 19.194C22.6747 19.194 22.4647 19.2173 22.2501 19.264C22.0354 19.3013 21.8394 19.3713 21.6621 19.474C21.4847 19.5673 21.3354 19.698 21.2141 19.866C21.1021 20.034 21.0461 20.244 21.0461 20.496C21.0461 20.8507 21.1534 21.1307 21.3681 21.336C21.5921 21.532 21.8814 21.6813 22.2361 21.784C22.2734 21.7933 22.4181 21.8353 22.6701 21.91C22.9314 21.9753 23.2207 22.05 23.5381 22.134C23.8554 22.218 24.1634 22.302 24.4621 22.386C24.7701 22.4607 24.9894 22.5167 25.1201 22.554C25.4467 22.6567 25.7314 22.7967 25.9741 22.974C26.2167 23.1513 26.4174 23.3567 26.5761 23.59C26.7441 23.814 26.8654 24.0567 26.9401 24.318C27.0241 24.5793 27.0661 24.8407 27.0661 25.102C27.0661 25.662 26.9494 26.1427 26.7161 26.544C26.4921 26.936 26.1934 27.258 25.8201 27.51C25.4467 27.762 25.0221 27.944 24.5461 28.056C24.0701 28.1773 23.5847 28.238 23.0901 28.238C22.5207 28.238 21.9841 28.168 21.4801 28.028C20.9761 27.888 20.5374 27.6733 20.1641 27.384C19.7907 27.0947 19.4921 26.726 19.2681 26.278C19.0441 25.8207 18.9274 25.284 18.9181 24.668H20.6681ZM34.4362 26.39C34.4362 26.586 34.4595 26.726 34.5062 26.81C34.5622 26.894 34.6648 26.936 34.8142 26.936C34.8608 26.936 34.9168 26.936 34.9822 26.936C35.0475 26.936 35.1222 26.9267 35.2062 26.908V28.014C35.1502 28.0327 35.0755 28.0513 34.9822 28.07C34.8982 28.098 34.8095 28.1213 34.7162 28.14C34.6228 28.1587 34.5295 28.1727 34.4362 28.182C34.3428 28.1913 34.2635 28.196 34.1982 28.196C33.8715 28.196 33.6008 28.1307 33.3862 28C33.1715 27.8693 33.0315 27.6407 32.9662 27.314C32.6488 27.622 32.2568 27.846 31.7902 27.986C31.3328 28.126 30.8895 28.196 30.4602 28.196C30.1335 28.196 29.8208 28.1493 29.5222 28.056C29.2235 27.972 28.9575 27.846 28.7242 27.678C28.5002 27.5007 28.3182 27.2813 28.1782 27.02C28.0475 26.7493 27.9822 26.4367 27.9822 26.082C27.9822 25.634 28.0615 25.27 28.2202 24.99C28.3882 24.71 28.6028 24.4907 28.8642 24.332C29.1348 24.1733 29.4335 24.0613 29.7602 23.996C30.0962 23.9213 30.4322 23.8653 30.7682 23.828C31.0575 23.772 31.3328 23.7347 31.5942 23.716C31.8555 23.688 32.0842 23.646 32.2802 23.59C32.4855 23.534 32.6442 23.45 32.7562 23.338C32.8775 23.2167 32.9382 23.0393 32.9382 22.806C32.9382 22.6007 32.8868 22.4327 32.7842 22.302C32.6908 22.1713 32.5695 22.0733 32.4202 22.008C32.2802 21.9333 32.1215 21.8867 31.9442 21.868C31.7668 21.84 31.5988 21.826 31.4402 21.826C30.9922 21.826 30.6235 21.9193 30.3342 22.106C30.0448 22.2927 29.8815 22.582 29.8442 22.974H28.2482C28.2762 22.5073 28.3882 22.12 28.5842 21.812C28.7802 21.504 29.0275 21.2567 29.3262 21.07C29.6342 20.8833 29.9795 20.7527 30.3622 20.678C30.7448 20.6033 31.1368 20.566 31.5382 20.566C31.8928 20.566 32.2428 20.6033 32.5882 20.678C32.9335 20.7527 33.2415 20.874 33.5122 21.042C33.7922 21.21 34.0162 21.4293 34.1842 21.7C34.3522 21.9613 34.4362 22.2833 34.4362 22.666V26.39ZM32.8402 24.374C32.5975 24.5327 32.2988 24.6307 31.9442 24.668C31.5895 24.696 31.2348 24.7427 30.8802 24.808C30.7122 24.836 30.5488 24.878 30.3902 24.934C30.2315 24.9807 30.0915 25.0507 29.9702 25.144C29.8488 25.228 29.7508 25.3447 29.6762 25.494C29.6108 25.634 29.5782 25.8067 29.5782 26.012C29.5782 26.1893 29.6295 26.3387 29.7322 26.46C29.8348 26.5813 29.9562 26.6793 30.0962 26.754C30.2455 26.8193 30.4042 26.866 30.5722 26.894C30.7495 26.922 30.9082 26.936 31.0482 26.936C31.2255 26.936 31.4168 26.9127 31.6222 26.866C31.8275 26.8193 32.0188 26.74 32.1962 26.628C32.3828 26.516 32.5368 26.376 32.6582 26.208C32.7795 26.0307 32.8402 25.816 32.8402 25.564V24.374ZM35.4395 20.762H37.1755L39.0095 26.32H39.0375L40.8015 20.762H42.4535L39.8635 28H38.0715L35.4395 20.762ZM48.3832 23.744C48.3646 23.492 48.3086 23.2493 48.2152 23.016C48.1312 22.7827 48.0099 22.582 47.8512 22.414C47.7019 22.2367 47.5152 22.0967 47.2912 21.994C47.0766 21.882 46.8339 21.826 46.5632 21.826C46.2832 21.826 46.0266 21.8773 45.7932 21.98C45.5692 22.0733 45.3732 22.2087 45.2052 22.386C45.0466 22.554 44.9159 22.7547 44.8132 22.988C44.7199 23.2213 44.6686 23.4733 44.6592 23.744H48.3832ZM44.6592 24.794C44.6592 25.074 44.6966 25.3447 44.7712 25.606C44.8552 25.8673 44.9766 26.096 45.1352 26.292C45.2939 26.488 45.4946 26.6467 45.7372 26.768C45.9799 26.88 46.2692 26.936 46.6052 26.936C47.0719 26.936 47.4452 26.838 47.7252 26.642C48.0146 26.4367 48.2292 26.1333 48.3692 25.732H49.8812C49.7972 26.124 49.6526 26.474 49.4472 26.782C49.2419 27.09 48.9946 27.3513 48.7052 27.566C48.4159 27.7713 48.0892 27.9253 47.7252 28.028C47.3706 28.14 46.9972 28.196 46.6052 28.196C46.0359 28.196 45.5319 28.1027 45.0932 27.916C44.6546 27.7293 44.2812 27.468 43.9732 27.132C43.6746 26.796 43.4459 26.3947 43.2872 25.928C43.1379 25.4613 43.0632 24.948 43.0632 24.388C43.0632 23.8747 43.1426 23.3893 43.3012 22.932C43.4692 22.4653 43.7026 22.0593 44.0012 21.714C44.3092 21.3593 44.6779 21.0793 45.1072 20.874C45.5366 20.6687 46.0219 20.566 46.5632 20.566C47.1326 20.566 47.6412 20.6873 48.0892 20.93C48.5466 21.1633 48.9246 21.476 49.2232 21.868C49.5219 22.26 49.7366 22.7127 49.8672 23.226C50.0072 23.73 50.0446 24.2527 49.9792 24.794H44.6592ZM59.387 21.56C59.247 22.1107 58.967 22.554 58.547 22.89C58.127 23.2167 57.665 23.45 57.161 23.59L60.507 28H58.743L56.265 24.71C55.9944 24.346 55.775 24.0847 55.607 23.926C55.4484 23.758 55.2477 23.674 55.005 23.674V22.652H55.831C56.3257 22.652 56.741 22.568 57.077 22.4C57.4224 22.2227 57.6604 21.9427 57.791 21.56H54.753L55.173 20.37H57.819C57.7444 20.0713 57.5904 19.838 57.357 19.67C57.133 19.502 56.825 19.4087 56.433 19.39H54.753L55.173 18.2H61.319L60.899 19.39H59.107C59.2844 19.698 59.3917 20.0247 59.429 20.37H61.319L60.899 21.56H59.387ZM67.4353 20.678C67.3979 20.2767 67.2533 19.9547 67.0013 19.712C66.7586 19.46 66.4273 19.334 66.0073 19.334C65.7179 19.334 65.4659 19.39 65.2513 19.502C65.0459 19.6047 64.8686 19.7447 64.7193 19.922C64.5793 20.0993 64.4626 20.3047 64.3693 20.538C64.2853 20.762 64.2153 21 64.1593 21.252C64.1033 21.504 64.0613 21.756 64.0333 22.008C64.0146 22.2507 63.9959 22.4793 63.9773 22.694L64.0053 22.722C64.2199 22.33 64.5139 22.0407 64.8873 21.854C65.2699 21.658 65.6806 21.56 66.1193 21.56C66.6046 21.56 67.0386 21.644 67.4213 21.812C67.8039 21.98 68.1259 22.2133 68.3873 22.512C68.6579 22.8013 68.8633 23.1467 69.0033 23.548C69.1433 23.9493 69.2133 24.3833 69.2133 24.85C69.2133 25.326 69.1339 25.7693 68.9753 26.18C68.8259 26.5813 68.6066 26.936 68.3173 27.244C68.0279 27.5427 67.6826 27.776 67.2813 27.944C66.8799 28.112 66.4366 28.196 65.9513 28.196C65.2326 28.196 64.6399 28.0653 64.1733 27.804C63.7159 27.5333 63.3519 27.1693 63.0813 26.712C62.8199 26.2453 62.6379 25.704 62.5353 25.088C62.4326 24.4627 62.3813 23.7907 62.3813 23.072C62.3813 22.484 62.4419 21.8913 62.5633 21.294C62.6939 20.6967 62.9039 20.1553 63.1933 19.67C63.4826 19.1753 63.8606 18.774 64.3273 18.466C64.8033 18.158 65.3866 18.004 66.0773 18.004C66.4693 18.004 66.8379 18.0693 67.1833 18.2C67.5286 18.3307 67.8319 18.5127 68.0933 18.746C68.3639 18.9793 68.5833 19.2593 68.7513 19.586C68.9193 19.9127 69.0126 20.2767 69.0313 20.678H67.4353ZM65.8953 26.866C66.1846 26.866 66.4366 26.81 66.6513 26.698C66.8659 26.5767 67.0433 26.4227 67.1833 26.236C67.3326 26.0493 67.4399 25.8347 67.5053 25.592C67.5799 25.34 67.6173 25.0833 67.6173 24.822C67.6173 24.5607 67.5799 24.3087 67.5053 24.066C67.4399 23.8233 67.3326 23.6133 67.1833 23.436C67.0433 23.2493 66.8659 23.1 66.6513 22.988C66.4366 22.876 66.1846 22.82 65.8953 22.82C65.6059 22.82 65.3493 22.876 65.1253 22.988C64.9106 23.0907 64.7286 23.2353 64.5793 23.422C64.4299 23.5993 64.3179 23.8093 64.2433 24.052C64.1686 24.2947 64.1313 24.5513 64.1313 24.822C64.1313 25.0927 64.1686 25.3493 64.2433 25.592C64.3179 25.8347 64.4299 26.054 64.5793 26.25C64.7286 26.4367 64.9106 26.586 65.1253 26.698C65.3493 26.81 65.6059 26.866 65.8953 26.866ZM70.6506 26.11H72.5966V28C72.5872 28.5787 72.4099 29.064 72.0646 29.456C71.7192 29.848 71.2666 30.1 70.7066 30.212V29.358C71.0146 29.2833 71.2432 29.1107 71.3926 28.84C71.5512 28.5787 71.6259 28.2987 71.6166 28H70.6506V26.11ZM77.4731 18.004C78.1731 18.004 78.7424 18.1673 79.1811 18.494C79.6291 18.8113 79.9744 19.222 80.2171 19.726C80.4691 20.2207 80.6371 20.7667 80.7211 21.364C80.8144 21.9613 80.8611 22.54 80.8611 23.1C80.8611 23.66 80.8144 24.2387 80.7211 24.836C80.6371 25.4333 80.4691 25.984 80.2171 26.488C79.9744 26.9827 79.6291 27.3933 79.1811 27.72C78.7424 28.0373 78.1731 28.196 77.4731 28.196C76.7731 28.196 76.1991 28.0373 75.7511 27.72C75.3124 27.3933 74.9671 26.9827 74.7151 26.488C74.4724 25.984 74.3044 25.4333 74.2111 24.836C74.1271 24.2387 74.0851 23.66 74.0851 23.1C74.0851 22.54 74.1271 21.9613 74.2111 21.364C74.3044 20.7667 74.4724 20.2207 74.7151 19.726C74.9671 19.222 75.3124 18.8113 75.7511 18.494C76.1991 18.1673 76.7731 18.004 77.4731 18.004ZM77.4731 26.866C77.8184 26.866 78.1077 26.768 78.3411 26.572C78.5744 26.3667 78.7564 26.096 78.8871 25.76C79.0271 25.4147 79.1251 25.0133 79.1811 24.556C79.2371 24.0987 79.2651 23.6133 79.2651 23.1C79.2651 22.5867 79.2371 22.106 79.1811 21.658C79.1251 21.2007 79.0271 20.7993 78.8871 20.454C78.7564 20.1087 78.5744 19.838 78.3411 19.642C78.1077 19.4367 77.8184 19.334 77.4731 19.334C77.1184 19.334 76.8244 19.4367 76.5911 19.642C76.3671 19.838 76.1851 20.1087 76.0451 20.454C75.9144 20.7993 75.8211 21.2007 75.7651 21.658C75.7091 22.106 75.6811 22.5867 75.6811 23.1C75.6811 23.6133 75.7091 24.0987 75.7651 24.556C75.8211 25.0133 75.9144 25.4147 76.0451 25.76C76.1851 26.096 76.3671 26.3667 76.5911 26.572C76.8244 26.768 77.1184 26.866 77.4731 26.866ZM85.2524 18.004C85.9524 18.004 86.5217 18.1673 86.9604 18.494C87.4084 18.8113 87.7537 19.222 87.9964 19.726C88.2484 20.2207 88.4164 20.7667 88.5004 21.364C88.5937 21.9613 88.6404 22.54 88.6404 23.1C88.6404 23.66 88.5937 24.2387 88.5004 24.836C88.4164 25.4333 88.2484 25.984 87.9964 26.488C87.7537 26.9827 87.4084 27.3933 86.9604 27.72C86.5217 28.0373 85.9524 28.196 85.2524 28.196C84.5524 28.196 83.9784 28.0373 83.5304 27.72C83.0917 27.3933 82.7464 26.9827 82.4944 26.488C82.2517 25.984 82.0837 25.4333 81.9904 24.836C81.9064 24.2387 81.8644 23.66 81.8644 23.1C81.8644 22.54 81.9064 21.9613 81.9904 21.364C82.0837 20.7667 82.2517 20.2207 82.4944 19.726C82.7464 19.222 83.0917 18.8113 83.5304 18.494C83.9784 18.1673 84.5524 18.004 85.2524 18.004ZM85.2524 26.866C85.5977 26.866 85.887 26.768 86.1204 26.572C86.3537 26.3667 86.5357 26.096 86.6664 25.76C86.8064 25.4147 86.9044 25.0133 86.9604 24.556C87.0164 24.0987 87.0444 23.6133 87.0444 23.1C87.0444 22.5867 87.0164 22.106 86.9604 21.658C86.9044 21.2007 86.8064 20.7993 86.6664 20.454C86.5357 20.1087 86.3537 19.838 86.1204 19.642C85.887 19.4367 85.5977 19.334 85.2524 19.334C84.8977 19.334 84.6037 19.4367 84.3704 19.642C84.1464 19.838 83.9644 20.1087 83.8244 20.454C83.6937 20.7993 83.6004 21.2007 83.5444 21.658C83.4884 22.106 83.4604 22.5867 83.4604 23.1C83.4604 23.6133 83.4884 24.0987 83.5444 24.556C83.6004 25.0133 83.6937 25.4147 83.8244 25.76C83.9644 26.096 84.1464 26.3667 84.3704 26.572C84.6037 26.768 84.8977 26.866 85.2524 26.866ZM90.1056 26.11H92.0516V28C92.0423 28.5787 91.865 29.064 91.5196 29.456C91.1743 29.848 90.7216 30.1 90.1616 30.212V29.358C90.4696 29.2833 90.6983 29.1107 90.8476 28.84C91.0063 28.5787 91.081 28.2987 91.0716 28H90.1056V26.11ZM96.9281 18.004C97.6281 18.004 98.1975 18.1673 98.6361 18.494C99.0841 18.8113 99.4295 19.222 99.6721 19.726C99.9241 20.2207 100.092 20.7667 100.176 21.364C100.269 21.9613 100.316 22.54 100.316 23.1C100.316 23.66 100.269 24.2387 100.176 24.836C100.092 25.4333 99.9241 25.984 99.6721 26.488C99.4295 26.9827 99.0841 27.3933 98.6361 27.72C98.1975 28.0373 97.6281 28.196 96.9281 28.196C96.2281 28.196 95.6541 28.0373 95.2061 27.72C94.7675 27.3933 94.4221 26.9827 94.1701 26.488C93.9275 25.984 93.7595 25.4333 93.6661 24.836C93.5821 24.2387 93.5401 23.66 93.5401 23.1C93.5401 22.54 93.5821 21.9613 93.6661 21.364C93.7595 20.7667 93.9275 20.2207 94.1701 19.726C94.4221 19.222 94.7675 18.8113 95.2061 18.494C95.6541 18.1673 96.2281 18.004 96.9281 18.004ZM96.9281 26.866C97.2735 26.866 97.5628 26.768 97.7961 26.572C98.0295 26.3667 98.2115 26.096 98.3421 25.76C98.4821 25.4147 98.5801 25.0133 98.6361 24.556C98.6921 24.0987 98.7201 23.6133 98.7201 23.1C98.7201 22.5867 98.6921 22.106 98.6361 21.658C98.5801 21.2007 98.4821 20.7993 98.3421 20.454C98.2115 20.1087 98.0295 19.838 97.7961 19.642C97.5628 19.4367 97.2735 19.334 96.9281 19.334C96.5735 19.334 96.2795 19.4367 96.0461 19.642C95.8221 19.838 95.6401 20.1087 95.5001 20.454C95.3695 20.7993 95.2761 21.2007 95.2201 21.658C95.1641 22.106 95.1361 22.5867 95.1361 23.1C95.1361 23.6133 95.1641 24.0987 95.2201 24.556C95.2761 25.0133 95.3695 25.4147 95.5001 25.76C95.6401 26.096 95.8221 26.3667 96.0461 26.572C96.2795 26.768 96.5735 26.866 96.9281 26.866ZM104.707 18.004C105.407 18.004 105.977 18.1673 106.415 18.494C106.863 18.8113 107.209 19.222 107.451 19.726C107.703 20.2207 107.871 20.7667 107.955 21.364C108.049 21.9613 108.095 22.54 108.095 23.1C108.095 23.66 108.049 24.2387 107.955 24.836C107.871 25.4333 107.703 25.984 107.451 26.488C107.209 26.9827 106.863 27.3933 106.415 27.72C105.977 28.0373 105.407 28.196 104.707 28.196C104.007 28.196 103.433 28.0373 102.985 27.72C102.547 27.3933 102.201 26.9827 101.949 26.488C101.707 25.984 101.539 25.4333 101.445 24.836C101.361 24.2387 101.319 23.66 101.319 23.1C101.319 22.54 101.361 21.9613 101.445 21.364C101.539 20.7667 101.707 20.2207 101.949 19.726C102.201 19.222 102.547 18.8113 102.985 18.494C103.433 18.1673 104.007 18.004 104.707 18.004ZM104.707 26.866C105.053 26.866 105.342 26.768 105.575 26.572C105.809 26.3667 105.991 26.096 106.121 25.76C106.261 25.4147 106.359 25.0133 106.415 24.556C106.471 24.0987 106.499 23.6133 106.499 23.1C106.499 22.5867 106.471 22.106 106.415 21.658C106.359 21.2007 106.261 20.7993 106.121 20.454C105.991 20.1087 105.809 19.838 105.575 19.642C105.342 19.4367 105.053 19.334 104.707 19.334C104.353 19.334 104.059 19.4367 103.825 19.642C103.601 19.838 103.419 20.1087 103.279 20.454C103.149 20.7993 103.055 21.2007 102.999 21.658C102.943 22.106 102.915 22.5867 102.915 23.1C102.915 23.6133 102.943 24.0987 102.999 24.556C103.055 25.0133 103.149 25.4147 103.279 25.76C103.419 26.096 103.601 26.3667 103.825 26.572C104.059 26.768 104.353 26.866 104.707 26.866ZM112.487 18.004C113.187 18.004 113.756 18.1673 114.195 18.494C114.643 18.8113 114.988 19.222 115.231 19.726C115.483 20.2207 115.651 20.7667 115.735 21.364C115.828 21.9613 115.875 22.54 115.875 23.1C115.875 23.66 115.828 24.2387 115.735 24.836C115.651 25.4333 115.483 25.984 115.231 26.488C114.988 26.9827 114.643 27.3933 114.195 27.72C113.756 28.0373 113.187 28.196 112.487 28.196C111.787 28.196 111.213 28.0373 110.765 27.72C110.326 27.3933 109.981 26.9827 109.729 26.488C109.486 25.984 109.318 25.4333 109.225 24.836C109.141 24.2387 109.099 23.66 109.099 23.1C109.099 22.54 109.141 21.9613 109.225 21.364C109.318 20.7667 109.486 20.2207 109.729 19.726C109.981 19.222 110.326 18.8113 110.765 18.494C111.213 18.1673 111.787 18.004 112.487 18.004ZM112.487 26.866C112.832 26.866 113.121 26.768 113.355 26.572C113.588 26.3667 113.77 26.096 113.901 25.76C114.041 25.4147 114.139 25.0133 114.195 24.556C114.251 24.0987 114.279 23.6133 114.279 23.1C114.279 22.5867 114.251 22.106 114.195 21.658C114.139 21.2007 114.041 20.7993 113.901 20.454C113.77 20.1087 113.588 19.838 113.355 19.642C113.121 19.4367 112.832 19.334 112.487 19.334C112.132 19.334 111.838 19.4367 111.605 19.642C111.381 19.838 111.199 20.1087 111.059 20.454C110.928 20.7993 110.835 21.2007 110.779 21.658C110.723 22.106 110.695 22.5867 110.695 23.1C110.695 23.6133 110.723 24.0987 110.779 24.556C110.835 25.0133 110.928 25.4147 111.059 25.76C111.199 26.096 111.381 26.3667 111.605 26.572C111.838 26.768 112.132 26.866 112.487 26.866ZM128.335 28H127.075L125.605 22.246H125.577L124.121 28H122.833L120.509 20.762H121.825L123.463 26.684H123.491L124.947 20.762H126.249L127.761 26.684H127.789L129.413 20.762H130.645L128.335 28ZM133.036 19.46H131.846V18.004H133.036V19.46ZM131.846 20.762H133.036V28H131.846V20.762ZM136.531 20.762H137.973V21.812H136.531V26.306C136.531 26.446 136.541 26.558 136.559 26.642C136.587 26.726 136.634 26.7913 136.699 26.838C136.765 26.8847 136.853 26.9173 136.965 26.936C137.087 26.9453 137.241 26.95 137.427 26.95H137.973V28H137.063C136.755 28 136.489 27.9813 136.265 27.944C136.051 27.8973 135.873 27.818 135.733 27.706C135.603 27.594 135.505 27.4353 135.439 27.23C135.374 27.0247 135.341 26.754 135.341 26.418V21.812H134.109V20.762H135.341V18.592H136.531V20.762ZM139.295 18.004H140.485V21.826H140.513C140.607 21.602 140.737 21.4153 140.905 21.266C141.073 21.1073 141.26 20.9813 141.465 20.888C141.68 20.7853 141.899 20.7107 142.123 20.664C142.357 20.6173 142.581 20.594 142.795 20.594C143.271 20.594 143.668 20.6593 143.985 20.79C144.303 20.9207 144.559 21.1027 144.755 21.336C144.951 21.5693 145.087 21.8493 145.161 22.176C145.245 22.4933 145.287 22.848 145.287 23.24V28H144.097V23.1C144.097 22.652 143.967 22.2973 143.705 22.036C143.444 21.7747 143.085 21.644 142.627 21.644C142.263 21.644 141.946 21.7 141.675 21.812C141.414 21.924 141.195 22.0827 141.017 22.288C140.84 22.4933 140.705 22.736 140.611 23.016C140.527 23.2867 140.485 23.5853 140.485 23.912V28H139.295V18.004ZM151.839 24.388C151.839 24.8267 151.895 25.2187 152.007 25.564C152.129 25.9 152.292 26.1847 152.497 26.418C152.703 26.642 152.941 26.8147 153.211 26.936C153.491 27.0573 153.785 27.118 154.093 27.118C154.401 27.118 154.691 27.0573 154.961 26.936C155.241 26.8147 155.484 26.642 155.689 26.418C155.895 26.1847 156.053 25.9 156.165 25.564C156.287 25.2187 156.347 24.8267 156.347 24.388C156.347 23.9493 156.287 23.562 156.165 23.226C156.053 22.8807 155.895 22.5913 155.689 22.358C155.484 22.1247 155.241 21.9473 154.961 21.826C154.691 21.7047 154.401 21.644 154.093 21.644C153.785 21.644 153.491 21.7047 153.211 21.826C152.941 21.9473 152.703 22.1247 152.497 22.358C152.292 22.5913 152.129 22.8807 152.007 23.226C151.895 23.562 151.839 23.9493 151.839 24.388ZM150.579 24.388C150.579 23.856 150.654 23.3613 150.803 22.904C150.953 22.4373 151.177 22.036 151.475 21.7C151.774 21.3547 152.143 21.084 152.581 20.888C153.02 20.692 153.524 20.594 154.093 20.594C154.672 20.594 155.176 20.692 155.605 20.888C156.044 21.084 156.413 21.3547 156.711 21.7C157.01 22.036 157.234 22.4373 157.383 22.904C157.533 23.3613 157.607 23.856 157.607 24.388C157.607 24.92 157.533 25.4147 157.383 25.872C157.234 26.3293 157.01 26.7307 156.711 27.076C156.413 27.412 156.044 27.678 155.605 27.874C155.176 28.0607 154.672 28.154 154.093 28.154C153.524 28.154 153.02 28.0607 152.581 27.874C152.143 27.678 151.774 27.412 151.475 27.076C151.177 26.7307 150.953 26.3293 150.803 25.872C150.654 25.4147 150.579 24.92 150.579 24.388ZM165.002 28H163.882V26.852H163.854C163.602 27.3 163.28 27.6313 162.888 27.846C162.496 28.0513 162.034 28.154 161.502 28.154C161.026 28.154 160.63 28.0933 160.312 27.972C159.995 27.8413 159.738 27.6593 159.542 27.426C159.346 27.1927 159.206 26.9173 159.122 26.6C159.048 26.2733 159.01 25.914 159.01 25.522V20.762H160.2V25.662C160.2 26.11 160.331 26.4647 160.592 26.726C160.854 26.9873 161.213 27.118 161.67 27.118C162.034 27.118 162.347 27.062 162.608 26.95C162.879 26.838 163.103 26.6793 163.28 26.474C163.458 26.2687 163.588 26.0307 163.672 25.76C163.766 25.48 163.812 25.1767 163.812 24.85V20.762H165.002V28ZM166.748 20.762H167.868V22.288H167.896C168.185 21.7 168.54 21.266 168.96 20.986C169.38 20.706 169.912 20.5753 170.556 20.594V21.854C170.08 21.854 169.674 21.9193 169.338 22.05C169.002 22.1807 168.731 22.372 168.526 22.624C168.32 22.876 168.171 23.184 168.078 23.548C167.984 23.9027 167.938 24.3133 167.938 24.78V28H166.748V20.762ZM180.374 23.688C180.355 23.408 180.29 23.142 180.178 22.89C180.075 22.638 179.931 22.4233 179.744 22.246C179.567 22.0593 179.352 21.9147 179.1 21.812C178.857 21.7 178.587 21.644 178.288 21.644C177.98 21.644 177.7 21.7 177.448 21.812C177.205 21.9147 176.995 22.0593 176.818 22.246C176.641 22.4327 176.501 22.652 176.398 22.904C176.295 23.1467 176.235 23.408 176.216 23.688H180.374ZM181.522 25.704C181.363 26.516 181.013 27.1273 180.472 27.538C179.931 27.9487 179.249 28.154 178.428 28.154C177.849 28.154 177.345 28.0607 176.916 27.874C176.496 27.6873 176.141 27.426 175.852 27.09C175.563 26.754 175.343 26.3527 175.194 25.886C175.054 25.4193 174.975 24.9107 174.956 24.36C174.956 23.8093 175.04 23.3053 175.208 22.848C175.376 22.3907 175.609 21.994 175.908 21.658C176.216 21.322 176.575 21.0607 176.986 20.874C177.406 20.6873 177.863 20.594 178.358 20.594C179.002 20.594 179.534 20.7293 179.954 21C180.383 21.2613 180.724 21.5973 180.976 22.008C181.237 22.4187 181.415 22.8667 181.508 23.352C181.611 23.8373 181.653 24.2993 181.634 24.738H176.216C176.207 25.0553 176.244 25.3587 176.328 25.648C176.412 25.928 176.547 26.18 176.734 26.404C176.921 26.6187 177.159 26.7913 177.448 26.922C177.737 27.0527 178.078 27.118 178.47 27.118C178.974 27.118 179.385 27.0013 179.702 26.768C180.029 26.5347 180.243 26.18 180.346 25.704H181.522ZM189.28 27.972C189.074 28.0933 188.79 28.154 188.426 28.154C188.118 28.154 187.87 28.07 187.684 27.902C187.506 27.7247 187.418 27.44 187.418 27.048C187.091 27.44 186.708 27.7247 186.27 27.902C185.84 28.07 185.374 28.154 184.87 28.154C184.543 28.154 184.23 28.1167 183.932 28.042C183.642 27.9673 183.39 27.8507 183.176 27.692C182.961 27.5333 182.788 27.328 182.658 27.076C182.536 26.8147 182.476 26.502 182.476 26.138C182.476 25.7273 182.546 25.3913 182.686 25.13C182.826 24.8687 183.008 24.6587 183.232 24.5C183.465 24.332 183.726 24.206 184.016 24.122C184.314 24.038 184.618 23.968 184.926 23.912C185.252 23.8467 185.56 23.8 185.85 23.772C186.148 23.7347 186.41 23.688 186.634 23.632C186.858 23.5667 187.035 23.478 187.166 23.366C187.296 23.2447 187.362 23.072 187.362 22.848C187.362 22.5867 187.31 22.3767 187.208 22.218C187.114 22.0593 186.988 21.938 186.83 21.854C186.68 21.77 186.508 21.714 186.312 21.686C186.125 21.658 185.938 21.644 185.752 21.644C185.248 21.644 184.828 21.742 184.492 21.938C184.156 22.1247 183.974 22.484 183.946 23.016H182.756C182.774 22.568 182.868 22.19 183.036 21.882C183.204 21.574 183.428 21.3267 183.708 21.14C183.988 20.944 184.305 20.804 184.66 20.72C185.024 20.636 185.411 20.594 185.822 20.594C186.148 20.594 186.47 20.6173 186.788 20.664C187.114 20.7107 187.408 20.8087 187.67 20.958C187.931 21.098 188.141 21.2987 188.3 21.56C188.458 21.8213 188.538 22.162 188.538 22.582V26.306C188.538 26.586 188.552 26.7913 188.58 26.922C188.617 27.0527 188.729 27.118 188.916 27.118C189.018 27.118 189.14 27.0947 189.28 27.048V27.972ZM187.348 24.262C187.198 24.374 187.002 24.458 186.76 24.514C186.517 24.5607 186.26 24.6027 185.99 24.64C185.728 24.668 185.462 24.7053 185.192 24.752C184.921 24.7893 184.678 24.8547 184.464 24.948C184.249 25.0413 184.072 25.1767 183.932 25.354C183.801 25.522 183.736 25.7553 183.736 26.054C183.736 26.25 183.773 26.418 183.848 26.558C183.932 26.6887 184.034 26.796 184.156 26.88C184.286 26.964 184.436 27.0247 184.604 27.062C184.772 27.0993 184.949 27.118 185.136 27.118C185.528 27.118 185.864 27.0667 186.144 26.964C186.424 26.852 186.652 26.7167 186.83 26.558C187.007 26.39 187.138 26.2127 187.222 26.026C187.306 25.83 187.348 25.648 187.348 25.48V24.262ZM190.345 20.762H191.465V22.288H191.493C191.783 21.7 192.137 21.266 192.557 20.986C192.977 20.706 193.509 20.5753 194.153 20.594V21.854C193.677 21.854 193.271 21.9193 192.935 22.05C192.599 22.1807 192.329 22.372 192.123 22.624C191.918 22.876 191.769 23.184 191.675 23.548C191.582 23.9027 191.535 24.3133 191.535 24.78V28H190.345V20.762ZM195.119 18.004H196.309V28H195.119V18.004ZM200.995 28.966C200.855 29.3207 200.715 29.6193 200.575 29.862C200.444 30.1047 200.295 30.3007 200.127 30.45C199.968 30.6087 199.786 30.7207 199.581 30.786C199.385 30.8607 199.156 30.898 198.895 30.898C198.755 30.898 198.615 30.8887 198.475 30.87C198.335 30.8513 198.2 30.8187 198.069 30.772V29.68C198.172 29.7267 198.288 29.764 198.419 29.792C198.559 29.8293 198.676 29.848 198.769 29.848C199.012 29.848 199.212 29.7873 199.371 29.666C199.539 29.554 199.665 29.3907 199.749 29.176L200.239 27.958L197.369 20.762H198.713L200.827 26.684H200.855L202.885 20.762H204.145L200.995 28.966ZM210.575 22.792H213.179C213.935 22.8013 214.486 22.6473 214.831 22.33C215.186 22.0127 215.363 21.5553 215.363 20.958C215.363 20.3607 215.186 19.908 214.831 19.6C214.486 19.2827 213.935 19.124 213.179 19.124H210.575V22.792ZM209.245 18.004H213.627C214.635 18.004 215.396 18.2653 215.909 18.788C216.432 19.3013 216.693 20.0247 216.693 20.958C216.693 21.8913 216.432 22.6193 215.909 23.142C215.396 23.6647 214.635 23.9213 213.627 23.912H210.575V28H209.245V18.004ZM218.127 18.004H219.317V21.826H219.345C219.439 21.602 219.569 21.4153 219.737 21.266C219.905 21.1073 220.092 20.9813 220.297 20.888C220.512 20.7853 220.731 20.7107 220.955 20.664C221.189 20.6173 221.413 20.594 221.627 20.594C222.103 20.594 222.5 20.6593 222.817 20.79C223.135 20.9207 223.391 21.1027 223.587 21.336C223.783 21.5693 223.919 21.8493 223.993 22.176C224.077 22.4933 224.119 22.848 224.119 23.24V28H222.929V23.1C222.929 22.652 222.799 22.2973 222.537 22.036C222.276 21.7747 221.917 21.644 221.459 21.644C221.095 21.644 220.778 21.7 220.507 21.812C220.246 21.924 220.027 22.0827 219.849 22.288C219.672 22.4933 219.537 22.736 219.443 23.016C219.359 23.2867 219.317 23.5853 219.317 23.912V28H218.127V18.004ZM232.319 27.972C232.113 28.0933 231.829 28.154 231.465 28.154C231.157 28.154 230.909 28.07 230.723 27.902C230.545 27.7247 230.457 27.44 230.457 27.048C230.13 27.44 229.747 27.7247 229.309 27.902C228.879 28.07 228.413 28.154 227.909 28.154C227.582 28.154 227.269 28.1167 226.971 28.042C226.681 27.9673 226.429 27.8507 226.215 27.692C226 27.5333 225.827 27.328 225.697 27.076C225.575 26.8147 225.515 26.502 225.515 26.138C225.515 25.7273 225.585 25.3913 225.725 25.13C225.865 24.8687 226.047 24.6587 226.271 24.5C226.504 24.332 226.765 24.206 227.055 24.122C227.353 24.038 227.657 23.968 227.965 23.912C228.291 23.8467 228.599 23.8 228.889 23.772C229.187 23.7347 229.449 23.688 229.673 23.632C229.897 23.5667 230.074 23.478 230.205 23.366C230.335 23.2447 230.401 23.072 230.401 22.848C230.401 22.5867 230.349 22.3767 230.247 22.218C230.153 22.0593 230.027 21.938 229.869 21.854C229.719 21.77 229.547 21.714 229.351 21.686C229.164 21.658 228.977 21.644 228.791 21.644C228.287 21.644 227.867 21.742 227.531 21.938C227.195 22.1247 227.013 22.484 226.985 23.016H225.795C225.813 22.568 225.907 22.19 226.075 21.882C226.243 21.574 226.467 21.3267 226.747 21.14C227.027 20.944 227.344 20.804 227.699 20.72C228.063 20.636 228.45 20.594 228.861 20.594C229.187 20.594 229.509 20.6173 229.827 20.664C230.153 20.7107 230.447 20.8087 230.709 20.958C230.97 21.098 231.18 21.2987 231.339 21.56C231.497 21.8213 231.577 22.162 231.577 22.582V26.306C231.577 26.586 231.591 26.7913 231.619 26.922C231.656 27.0527 231.768 27.118 231.955 27.118C232.057 27.118 232.179 27.0947 232.319 27.048V27.972ZM230.387 24.262C230.237 24.374 230.041 24.458 229.799 24.514C229.556 24.5607 229.299 24.6027 229.029 24.64C228.767 24.668 228.501 24.7053 228.231 24.752C227.96 24.7893 227.717 24.8547 227.503 24.948C227.288 25.0413 227.111 25.1767 226.971 25.354C226.84 25.522 226.775 25.7553 226.775 26.054C226.775 26.25 226.812 26.418 226.887 26.558C226.971 26.6887 227.073 26.796 227.195 26.88C227.325 26.964 227.475 27.0247 227.643 27.062C227.811 27.0993 227.988 27.118 228.175 27.118C228.567 27.118 228.903 27.0667 229.183 26.964C229.463 26.852 229.691 26.7167 229.869 26.558C230.046 26.39 230.177 26.2127 230.261 26.026C230.345 25.83 230.387 25.648 230.387 25.48V24.262ZM234.154 25.718C234.164 25.9793 234.224 26.2033 234.336 26.39C234.448 26.5673 234.593 26.712 234.77 26.824C234.957 26.9267 235.162 27.0013 235.386 27.048C235.62 27.0947 235.858 27.118 236.1 27.118C236.287 27.118 236.483 27.104 236.688 27.076C236.894 27.048 237.08 26.9967 237.248 26.922C237.426 26.8473 237.57 26.74 237.682 26.6C237.794 26.4507 237.85 26.264 237.85 26.04C237.85 25.732 237.734 25.4987 237.5 25.34C237.267 25.1813 236.973 25.0553 236.618 24.962C236.273 24.8593 235.895 24.7707 235.484 24.696C235.074 24.612 234.691 24.5 234.336 24.36C233.991 24.2107 233.702 24.0053 233.468 23.744C233.235 23.4827 233.118 23.1187 233.118 22.652C233.118 22.288 233.198 21.9753 233.356 21.714C233.524 21.4527 233.734 21.2427 233.986 21.084C234.248 20.916 234.537 20.7947 234.854 20.72C235.181 20.636 235.503 20.594 235.82 20.594C236.231 20.594 236.609 20.6313 236.954 20.706C237.3 20.7713 237.603 20.8927 237.864 21.07C238.135 21.238 238.35 21.4713 238.508 21.77C238.667 22.0593 238.76 22.4233 238.788 22.862H237.598C237.58 22.6287 237.519 22.4373 237.416 22.288C237.314 22.1293 237.183 22.0033 237.024 21.91C236.866 21.8167 236.688 21.7513 236.492 21.714C236.306 21.6673 236.114 21.644 235.918 21.644C235.741 21.644 235.559 21.658 235.372 21.686C235.195 21.714 235.032 21.7653 234.882 21.84C234.733 21.9053 234.612 21.9987 234.518 22.12C234.425 22.232 234.378 22.3813 234.378 22.568C234.378 22.7733 234.448 22.946 234.588 23.086C234.738 23.2167 234.924 23.3287 235.148 23.422C235.372 23.506 235.624 23.5807 235.904 23.646C236.184 23.702 236.464 23.7627 236.744 23.828C237.043 23.8933 237.332 23.9727 237.612 24.066C237.902 24.1593 238.154 24.2853 238.368 24.444C238.592 24.5933 238.77 24.7847 238.9 25.018C239.04 25.2513 239.11 25.5407 239.11 25.886C239.11 26.3247 239.017 26.6887 238.83 26.978C238.653 27.2673 238.415 27.5007 238.116 27.678C237.827 27.8553 237.496 27.9767 237.122 28.042C236.758 28.1167 236.394 28.154 236.03 28.154C235.629 28.154 235.246 28.112 234.882 28.028C234.518 27.944 234.196 27.8087 233.916 27.622C233.636 27.426 233.412 27.174 233.244 26.866C233.076 26.5487 232.983 26.166 232.964 25.718H234.154ZM245.452 23.688C245.434 23.408 245.368 23.142 245.256 22.89C245.154 22.638 245.009 22.4233 244.822 22.246C244.645 22.0593 244.43 21.9147 244.178 21.812C243.936 21.7 243.665 21.644 243.366 21.644C243.058 21.644 242.778 21.7 242.526 21.812C242.284 21.9147 242.074 22.0593 241.896 22.246C241.719 22.4327 241.579 22.652 241.476 22.904C241.374 23.1467 241.313 23.408 241.294 23.688H245.452ZM246.6 25.704C246.442 26.516 246.092 27.1273 245.55 27.538C245.009 27.9487 244.328 28.154 243.506 28.154C242.928 28.154 242.424 28.0607 241.994 27.874C241.574 27.6873 241.22 27.426 240.93 27.09C240.641 26.754 240.422 26.3527 240.272 25.886C240.132 25.4193 240.053 24.9107 240.034 24.36C240.034 23.8093 240.118 23.3053 240.286 22.848C240.454 22.3907 240.688 21.994 240.986 21.658C241.294 21.322 241.654 21.0607 242.064 20.874C242.484 20.6873 242.942 20.594 243.436 20.594C244.08 20.594 244.612 20.7293 245.032 21C245.462 21.2613 245.802 21.5973 246.054 22.008C246.316 22.4187 246.493 22.8667 246.586 23.352C246.689 23.8373 246.731 24.2993 246.712 24.738H241.294C241.285 25.0553 241.322 25.3587 241.406 25.648C241.49 25.928 241.626 26.18 241.812 26.404C241.999 26.6187 242.237 26.7913 242.526 26.922C242.816 27.0527 243.156 27.118 243.548 27.118C244.052 27.118 244.463 27.0013 244.78 26.768C245.107 26.5347 245.322 26.18 245.424 25.704H246.6ZM251.562 21.588C251.534 21.084 251.586 20.6173 251.716 20.188C251.847 19.7587 252.048 19.39 252.318 19.082C252.598 18.7647 252.944 18.5173 253.354 18.34C253.765 18.1627 254.232 18.074 254.754 18.074C255.184 18.074 255.585 18.1393 255.958 18.27C256.341 18.3913 256.672 18.5733 256.952 18.816C257.232 19.0493 257.452 19.3433 257.61 19.698C257.778 20.0527 257.862 20.4633 257.862 20.93C257.862 21.3687 257.792 21.756 257.652 22.092C257.522 22.428 257.344 22.7313 257.12 23.002C256.896 23.2633 256.64 23.5013 256.35 23.716C256.061 23.9307 255.762 24.136 255.454 24.332C255.146 24.5187 254.838 24.7053 254.53 24.892C254.222 25.0693 253.938 25.2607 253.676 25.466C253.424 25.6713 253.205 25.8953 253.018 26.138C252.841 26.3713 252.724 26.642 252.668 26.95H257.764V28H251.282C251.329 27.412 251.432 26.9127 251.59 26.502C251.758 26.082 251.968 25.718 252.22 25.41C252.472 25.102 252.757 24.8313 253.074 24.598C253.392 24.3647 253.723 24.1453 254.068 23.94C254.488 23.6787 254.857 23.4407 255.174 23.226C255.492 23.002 255.753 22.778 255.958 22.554C256.173 22.33 256.332 22.0873 256.434 21.826C256.546 21.5647 256.602 21.2613 256.602 20.916C256.602 20.6453 256.551 20.4027 256.448 20.188C256.346 19.964 256.206 19.7727 256.028 19.614C255.86 19.4553 255.66 19.334 255.426 19.25C255.193 19.166 254.946 19.124 254.684 19.124C254.339 19.124 254.04 19.1987 253.788 19.348C253.546 19.488 253.345 19.6747 253.186 19.908C253.028 20.1413 252.911 20.4073 252.836 20.706C252.771 20.9953 252.743 21.2893 252.752 21.588H251.562ZM264.778 19.46H263.588V18.004H264.778V19.46ZM263.588 20.762H264.778V28H263.588V20.762ZM266.622 20.762H267.742V21.91H267.77C268.264 21.0327 269.048 20.594 270.122 20.594C270.598 20.594 270.994 20.6593 271.312 20.79C271.629 20.9207 271.886 21.1027 272.082 21.336C272.278 21.5693 272.413 21.8493 272.488 22.176C272.572 22.4933 272.614 22.848 272.614 23.24V28H271.424V23.1C271.424 22.652 271.293 22.2973 271.032 22.036C270.77 21.7747 270.411 21.644 269.954 21.644C269.59 21.644 269.272 21.7 269.002 21.812C268.74 21.924 268.521 22.0827 268.344 22.288C268.166 22.4933 268.031 22.736 267.938 23.016C267.854 23.2867 267.812 23.5853 267.812 23.912V28H266.622V20.762ZM277.663 28H276.389L273.701 20.762H275.031L277.061 26.796H277.089L279.063 20.762H280.309L277.663 28ZM286.427 23.688C286.408 23.408 286.343 23.142 286.231 22.89C286.128 22.638 285.984 22.4233 285.797 22.246C285.62 22.0593 285.405 21.9147 285.153 21.812C284.91 21.7 284.64 21.644 284.341 21.644C284.033 21.644 283.753 21.7 283.501 21.812C283.258 21.9147 283.048 22.0593 282.871 22.246C282.694 22.4327 282.554 22.652 282.451 22.904C282.348 23.1467 282.288 23.408 282.269 23.688H286.427ZM287.575 25.704C287.416 26.516 287.066 27.1273 286.525 27.538C285.984 27.9487 285.302 28.154 284.481 28.154C283.902 28.154 283.398 28.0607 282.969 27.874C282.549 27.6873 282.194 27.426 281.905 27.09C281.616 26.754 281.396 26.3527 281.247 25.886C281.107 25.4193 281.028 24.9107 281.009 24.36C281.009 23.8093 281.093 23.3053 281.261 22.848C281.429 22.3907 281.662 21.994 281.961 21.658C282.269 21.322 282.628 21.0607 283.039 20.874C283.459 20.6873 283.916 20.594 284.411 20.594C285.055 20.594 285.587 20.7293 286.007 21C286.436 21.2613 286.777 21.5973 287.029 22.008C287.29 22.4187 287.468 22.8667 287.561 23.352C287.664 23.8373 287.706 24.2993 287.687 24.738H282.269C282.26 25.0553 282.297 25.3587 282.381 25.648C282.465 25.928 282.6 26.18 282.787 26.404C282.974 26.6187 283.212 26.7913 283.501 26.922C283.79 27.0527 284.131 27.118 284.523 27.118C285.027 27.118 285.438 27.0013 285.755 26.768C286.082 26.5347 286.296 26.18 286.399 25.704H287.575ZM289.648 25.718C289.658 25.9793 289.718 26.2033 289.83 26.39C289.942 26.5673 290.087 26.712 290.264 26.824C290.451 26.9267 290.656 27.0013 290.88 27.048C291.114 27.0947 291.352 27.118 291.594 27.118C291.781 27.118 291.977 27.104 292.182 27.076C292.388 27.048 292.574 26.9967 292.742 26.922C292.92 26.8473 293.064 26.74 293.176 26.6C293.288 26.4507 293.344 26.264 293.344 26.04C293.344 25.732 293.228 25.4987 292.994 25.34C292.761 25.1813 292.467 25.0553 292.112 24.962C291.767 24.8593 291.389 24.7707 290.978 24.696C290.568 24.612 290.185 24.5 289.83 24.36C289.485 24.2107 289.196 24.0053 288.962 23.744C288.729 23.4827 288.612 23.1187 288.612 22.652C288.612 22.288 288.692 21.9753 288.85 21.714C289.018 21.4527 289.228 21.2427 289.48 21.084C289.742 20.916 290.031 20.7947 290.348 20.72C290.675 20.636 290.997 20.594 291.314 20.594C291.725 20.594 292.103 20.6313 292.448 20.706C292.794 20.7713 293.097 20.8927 293.358 21.07C293.629 21.238 293.844 21.4713 294.002 21.77C294.161 22.0593 294.254 22.4233 294.282 22.862H293.092C293.074 22.6287 293.013 22.4373 292.91 22.288C292.808 22.1293 292.677 22.0033 292.518 21.91C292.36 21.8167 292.182 21.7513 291.986 21.714C291.8 21.6673 291.608 21.644 291.412 21.644C291.235 21.644 291.053 21.658 290.866 21.686C290.689 21.714 290.526 21.7653 290.376 21.84C290.227 21.9053 290.106 21.9987 290.012 22.12C289.919 22.232 289.872 22.3813 289.872 22.568C289.872 22.7733 289.942 22.946 290.082 23.086C290.232 23.2167 290.418 23.3287 290.642 23.422C290.866 23.506 291.118 23.5807 291.398 23.646C291.678 23.702 291.958 23.7627 292.238 23.828C292.537 23.8933 292.826 23.9727 293.106 24.066C293.396 24.1593 293.648 24.2853 293.862 24.444C294.086 24.5933 294.264 24.7847 294.394 25.018C294.534 25.2513 294.604 25.5407 294.604 25.886C294.604 26.3247 294.511 26.6887 294.324 26.978C294.147 27.2673 293.909 27.5007 293.61 27.678C293.321 27.8553 292.99 27.9767 292.616 28.042C292.252 28.1167 291.888 28.154 291.524 28.154C291.123 28.154 290.74 28.112 290.376 28.028C290.012 27.944 289.69 27.8087 289.41 27.622C289.13 27.426 288.906 27.174 288.738 26.866C288.57 26.5487 288.477 26.166 288.458 25.718H289.648ZM297.572 20.762H299.014V21.812H297.572V26.306C297.572 26.446 297.582 26.558 297.6 26.642C297.628 26.726 297.675 26.7913 297.74 26.838C297.806 26.8847 297.894 26.9173 298.006 26.936C298.128 26.9453 298.282 26.95 298.468 26.95H299.014V28H298.104C297.796 28 297.53 27.9813 297.306 27.944C297.092 27.8973 296.914 27.818 296.774 27.706C296.644 27.594 296.546 27.4353 296.48 27.23C296.415 27.0247 296.382 26.754 296.382 26.418V21.812H295.15V20.762H296.382V18.592H297.572V20.762ZM301.204 24.388C301.204 24.8267 301.26 25.2187 301.372 25.564C301.494 25.9 301.657 26.1847 301.862 26.418C302.068 26.642 302.306 26.8147 302.576 26.936C302.856 27.0573 303.15 27.118 303.458 27.118C303.766 27.118 304.056 27.0573 304.326 26.936C304.606 26.8147 304.849 26.642 305.054 26.418C305.26 26.1847 305.418 25.9 305.53 25.564C305.652 25.2187 305.712 24.8267 305.712 24.388C305.712 23.9493 305.652 23.562 305.53 23.226C305.418 22.8807 305.26 22.5913 305.054 22.358C304.849 22.1247 304.606 21.9473 304.326 21.826C304.056 21.7047 303.766 21.644 303.458 21.644C303.15 21.644 302.856 21.7047 302.576 21.826C302.306 21.9473 302.068 22.1247 301.862 22.358C301.657 22.5913 301.494 22.8807 301.372 23.226C301.26 23.562 301.204 23.9493 301.204 24.388ZM299.944 24.388C299.944 23.856 300.019 23.3613 300.168 22.904C300.318 22.4373 300.542 22.036 300.84 21.7C301.139 21.3547 301.508 21.084 301.946 20.888C302.385 20.692 302.889 20.594 303.458 20.594C304.037 20.594 304.541 20.692 304.97 20.888C305.409 21.084 305.778 21.3547 306.076 21.7C306.375 22.036 306.599 22.4373 306.748 22.904C306.898 23.3613 306.972 23.856 306.972 24.388C306.972 24.92 306.898 25.4147 306.748 25.872C306.599 26.3293 306.375 26.7307 306.076 27.076C305.778 27.412 305.409 27.678 304.97 27.874C304.541 28.0607 304.037 28.154 303.458 28.154C302.889 28.154 302.385 28.0607 301.946 27.874C301.508 27.678 301.139 27.412 300.84 27.076C300.542 26.7307 300.318 26.3293 300.168 25.872C300.019 25.4147 299.944 24.92 299.944 24.388ZM308.333 20.762H309.453V22.288H309.481C309.771 21.7 310.125 21.266 310.545 20.986C310.965 20.706 311.497 20.5753 312.141 20.594V21.854C311.665 21.854 311.259 21.9193 310.923 22.05C310.587 22.1807 310.317 22.372 310.111 22.624C309.906 22.876 309.757 23.184 309.663 23.548C309.57 23.9027 309.523 24.3133 309.523 24.78V28H308.333V20.762ZM316.976 20.762H318.166V21.742H318.194C318.39 21.3407 318.698 21.0513 319.118 20.874C319.538 20.6873 320 20.594 320.504 20.594C321.064 20.594 321.549 20.6967 321.96 20.902C322.38 21.1073 322.725 21.3873 322.996 21.742C323.276 22.0873 323.486 22.4887 323.626 22.946C323.766 23.4033 323.836 23.8887 323.836 24.402C323.836 24.9153 323.766 25.4007 323.626 25.858C323.495 26.3153 323.29 26.7167 323.01 27.062C322.739 27.398 322.394 27.664 321.974 27.86C321.563 28.056 321.083 28.154 320.532 28.154C320.355 28.154 320.154 28.1353 319.93 28.098C319.715 28.0607 319.501 28 319.286 27.916C319.071 27.832 318.866 27.72 318.67 27.58C318.483 27.4307 318.325 27.2487 318.194 27.034H318.166V30.758H316.976V20.762ZM322.576 24.318C322.576 23.982 322.529 23.6553 322.436 23.338C322.352 23.0113 322.217 22.722 322.03 22.47C321.853 22.218 321.619 22.0173 321.33 21.868C321.05 21.7187 320.719 21.644 320.336 21.644C319.935 21.644 319.594 21.7233 319.314 21.882C319.034 22.0407 318.805 22.2507 318.628 22.512C318.451 22.764 318.32 23.0533 318.236 23.38C318.161 23.7067 318.124 24.038 318.124 24.374C318.124 24.7287 318.166 25.074 318.25 25.41C318.334 25.7367 318.465 26.026 318.642 26.278C318.829 26.53 319.067 26.7353 319.356 26.894C319.645 27.0433 319.995 27.118 320.406 27.118C320.817 27.118 321.157 27.0387 321.428 26.88C321.708 26.7213 321.932 26.5113 322.1 26.25C322.268 25.9887 322.389 25.69 322.464 25.354C322.539 25.018 322.576 24.6727 322.576 24.318ZM325.191 20.762H326.311V22.288H326.339C326.628 21.7 326.983 21.266 327.403 20.986C327.823 20.706 328.355 20.5753 328.999 20.594V21.854C328.523 21.854 328.117 21.9193 327.781 22.05C327.445 22.1807 327.174 22.372 326.969 22.624C326.764 22.876 326.614 23.184 326.521 23.548C326.428 23.9027 326.381 24.3133 326.381 24.78V28H325.191V20.762ZM331.155 19.46H329.965V18.004H331.155V19.46ZM329.965 20.762H331.155V28H329.965V20.762ZM337.913 23.086C337.819 22.6287 337.623 22.274 337.325 22.022C337.026 21.77 336.625 21.644 336.121 21.644C335.691 21.644 335.332 21.7233 335.043 21.882C334.753 22.0407 334.52 22.2507 334.343 22.512C334.175 22.7733 334.053 23.0767 333.979 23.422C333.904 23.758 333.867 24.108 333.867 24.472C333.867 24.808 333.904 25.1347 333.979 25.452C334.063 25.7693 334.189 26.054 334.357 26.306C334.525 26.5487 334.744 26.7447 335.015 26.894C335.285 27.0433 335.607 27.118 335.981 27.118C336.569 27.118 337.026 26.964 337.353 26.656C337.689 26.348 337.894 25.914 337.969 25.354H339.187C339.056 26.25 338.72 26.9407 338.179 27.426C337.647 27.9113 336.919 28.154 335.995 28.154C335.444 28.154 334.954 28.0653 334.525 27.888C334.105 27.7107 333.75 27.4587 333.461 27.132C333.181 26.8053 332.966 26.418 332.817 25.97C332.677 25.5127 332.607 25.0133 332.607 24.472C332.607 23.9307 332.677 23.4267 332.817 22.96C332.957 22.484 333.167 22.0733 333.447 21.728C333.736 21.3733 334.095 21.098 334.525 20.902C334.954 20.6967 335.453 20.594 336.023 20.594C336.433 20.594 336.816 20.6453 337.171 20.748C337.535 20.8413 337.852 20.9907 338.123 21.196C338.403 21.4013 338.631 21.6627 338.809 21.98C338.986 22.288 339.098 22.6567 339.145 23.086H337.913ZM341.778 19.46H340.588V18.004H341.778V19.46ZM340.588 20.762H341.778V28H340.588V20.762ZM343.622 20.762H344.742V21.91H344.77C345.264 21.0327 346.048 20.594 347.122 20.594C347.598 20.594 347.994 20.6593 348.312 20.79C348.629 20.9207 348.886 21.1027 349.082 21.336C349.278 21.5693 349.413 21.8493 349.488 22.176C349.572 22.4933 349.614 22.848 349.614 23.24V28H348.424V23.1C348.424 22.652 348.293 22.2973 348.032 22.036C347.77 21.7747 347.411 21.644 346.954 21.644C346.59 21.644 346.272 21.7 346.002 21.812C345.74 21.924 345.521 22.0827 345.344 22.288C345.166 22.4933 345.031 22.736 344.938 23.016C344.854 23.2867 344.812 23.5853 344.812 23.912V28H343.622V20.762ZM357.645 27.384C357.645 28.5693 357.374 29.456 356.833 30.044C356.292 30.632 355.442 30.926 354.285 30.926C353.949 30.926 353.604 30.8887 353.249 30.814C352.904 30.7393 352.586 30.618 352.297 30.45C352.017 30.282 351.784 30.0627 351.597 29.792C351.41 29.5213 351.308 29.19 351.289 28.798H352.479C352.488 29.0127 352.554 29.1947 352.675 29.344C352.806 29.4933 352.96 29.6147 353.137 29.708C353.324 29.8013 353.524 29.8667 353.739 29.904C353.954 29.9507 354.159 29.974 354.355 29.974C354.747 29.974 355.078 29.904 355.349 29.764C355.62 29.6333 355.844 29.4467 356.021 29.204C356.198 28.9707 356.324 28.686 356.399 28.35C356.483 28.014 356.525 27.6453 356.525 27.244V26.768H356.497C356.292 27.216 355.979 27.5473 355.559 27.762C355.148 27.9673 354.71 28.07 354.243 28.07C353.702 28.07 353.23 27.972 352.829 27.776C352.428 27.58 352.092 27.3187 351.821 26.992C351.55 26.656 351.345 26.2687 351.205 25.83C351.074 25.382 351.009 24.9107 351.009 24.416C351.009 23.9867 351.065 23.548 351.177 23.1C351.289 22.6427 351.476 22.232 351.737 21.868C351.998 21.4947 352.344 21.1913 352.773 20.958C353.202 20.7153 353.73 20.594 354.355 20.594C354.812 20.594 355.232 20.6967 355.615 20.902C355.998 21.098 356.296 21.3967 356.511 21.798H356.525V20.762H357.645V27.384ZM354.313 27.034C354.705 27.034 355.036 26.9547 355.307 26.796C355.587 26.628 355.811 26.4133 355.979 26.152C356.147 25.8813 356.268 25.578 356.343 25.242C356.427 24.906 356.469 24.57 356.469 24.234C356.469 23.9167 356.432 23.604 356.357 23.296C356.282 22.988 356.161 22.7127 355.993 22.47C355.834 22.218 355.624 22.0173 355.363 21.868C355.102 21.7187 354.784 21.644 354.411 21.644C354.028 21.644 353.702 21.7187 353.431 21.868C353.16 22.008 352.936 22.1993 352.759 22.442C352.591 22.6847 352.465 22.9647 352.381 23.282C352.306 23.5993 352.269 23.9307 352.269 24.276C352.269 24.6027 352.302 24.9293 352.367 25.256C352.432 25.5827 352.544 25.8813 352.703 26.152C352.862 26.4133 353.072 26.628 353.333 26.796C353.594 26.9547 353.921 27.034 354.313 27.034Z" fill="#413529"/>
</svg>
