<svg width="168" height="70" viewBox="0 0 168 70" fill="none" xmlns="http://www.w3.org/2000/svg">
<path d="M65.5061 0H4.38204C1.91012 0 0 2.0225 0 4.38206V65.5061C0 67.978 2.02248 69.8881 4.38204 69.8881H65.5061C67.978 69.8881 69.8881 67.8656 69.8881 65.5061V4.38206C69.8881 1.91014 67.978 0 65.5061 0ZM22.0226 53.5959L29.2137 41.1239L14.8316 16.1799H47.8655L40.6744 28.6519L55.0565 53.5959H22.0226Z" fill="#00CC61"/>
<path d="M21.4629 20.1128L31.3506 37.1916L41.2383 20.1128H21.4629Z" fill="#00CC61"/>
<path d="M47.864 16.292H14.8301L29.2122 41.236L22.0211 53.708H55.0551L40.6729 28.764L47.864 16.292ZM21.4593 20.1123H41.2347L31.347 37.3034L21.4593 20.1123Z" fill="white"/>
<path d="M81.6847 35.9551H91.2354C91.123 36.9664 91.123 37.8653 91.123 38.6518C91.123 40.899 91.9095 42.5844 93.3702 43.5956C94.8309 44.6069 97.7523 45.0563 102.022 45.0563C105.842 45.0563 108.426 44.4945 109.887 43.3709C111.348 42.2473 112.022 40.4495 112.022 38.09C112.022 36.2922 111.685 34.9439 111.123 34.045C110.561 33.1461 109.438 32.3596 107.865 31.6854C105.955 31.0113 103.258 30.3371 99.7748 29.663C97.3028 29.3259 95.5051 28.9888 94.1567 28.7641C92.8084 28.5393 91.2354 27.9775 89.4376 27.3034C87.6398 26.6292 86.1791 25.7303 85.2803 24.8315C84.3814 23.9326 83.5949 22.5842 82.8083 20.7865C82.1342 19.1011 81.7971 17.0786 81.7971 14.719C81.7971 9.10102 83.3701 5.28077 86.4039 3.25829C89.55 1.34816 94.8309 0.336914 102.471 0.336914C109.213 0.336914 114.044 1.2358 116.741 2.9212C119.438 4.60661 120.898 7.97742 120.898 13.146C120.898 14.4943 120.786 15.5055 120.674 16.2921H111.46C111.46 15.8426 111.573 15.1685 111.573 14.1572C111.573 12.1347 110.898 10.6741 109.55 9.77519C108.202 8.87631 105.73 8.42685 102.022 8.42685C98.0893 8.42685 95.3927 8.8763 93.932 9.88754C92.4713 10.8988 91.6848 12.4718 91.6848 14.8314C91.6848 16.8539 92.1342 18.3146 92.9208 19.3258C93.7073 20.3371 95.168 21.0112 97.1905 21.4607C97.8646 21.573 100.449 21.9101 105.056 22.4719C109.662 23.0337 113.033 23.7079 115.168 24.6067C117.64 25.7303 119.325 27.3034 120.337 29.4382C121.348 31.5731 121.797 34.1574 121.797 37.4158C121.797 43.3709 120.337 47.5282 117.415 49.7754C114.494 52.0226 109.325 53.1463 101.797 53.1463C94.2691 53.1463 88.9882 52.135 85.9544 50.2249C82.8083 48.3148 81.3477 44.8316 81.3477 39.663C81.5724 38.4271 81.5724 37.1911 81.6847 35.9551Z" fill="white"/>
<path d="M130.559 1.01074H167.301V8.98831L140.897 43.9324H167.863V52.3594H128.986V43.9324L155.503 9.43776H130.559V1.01074Z" fill="white"/>
<path d="M93.5975 65.8423H97.9796V64.494H93.5975V62.4715H98.0919V60.8984H91.9121V69.7749H98.0919V68.3142H93.5975V65.8423Z" fill="white"/>
<path d="M103.822 67.7524L101.575 60.8984H99.7773L102.923 69.7749H104.721L107.98 60.8984H106.182L103.822 67.7524Z" fill="white"/>
<path d="M111.348 65.8423H115.73V64.494H111.348V62.4715H115.843V60.8984H109.775V69.7749H115.955V68.3142H111.348V65.8423Z" fill="white"/>
<path d="M119.776 60.8984H117.979V69.7749H123.709V68.3142H119.776V60.8984Z" fill="white"/>
<path d="M132.582 62.6967C132.469 62.3597 132.357 62.0226 132.245 61.7979C132.132 61.5731 131.908 61.4608 131.57 61.2361C131.233 61.1237 130.896 61.0113 130.559 60.899C130.11 60.7866 129.66 60.7866 129.099 60.7866C128.537 60.7866 127.975 60.7866 127.638 60.899C127.188 60.899 126.851 61.0113 126.627 61.2361C126.29 61.3484 126.065 61.5731 125.952 61.7979C125.84 62.0226 125.615 62.2473 125.615 62.6967C125.503 63.0338 125.503 63.4833 125.391 63.8203C125.391 64.1574 125.391 64.7192 125.391 65.3934C125.391 66.0676 125.391 66.517 125.391 66.9664C125.391 67.3035 125.503 67.753 125.615 68.09C125.728 68.4271 125.84 68.7642 125.952 68.9889C126.065 69.2136 126.29 69.326 126.627 69.5507C126.964 69.6631 127.301 69.7755 127.638 69.8878C128.087 69.8878 128.537 70.0002 129.099 70.0002C129.548 70.0002 129.885 70.0002 130.222 70.0002C130.559 70.0002 130.896 69.8878 131.121 69.8878C131.346 69.7755 131.57 69.6631 131.795 69.5507C132.02 69.4384 132.132 69.326 132.245 69.1013C132.357 68.8766 132.469 68.7642 132.582 68.5395C132.694 68.3148 132.694 68.09 132.806 67.753C132.806 67.4159 132.919 67.0788 132.919 66.7417C132.919 66.4046 132.919 66.0676 132.919 65.5057C132.919 64.8316 132.919 64.3822 132.919 63.9327C132.694 63.3709 132.694 63.0338 132.582 62.6967ZM131.121 66.3121C131.121 66.6492 131.009 66.7417 131.009 66.9664C131.009 67.1912 130.896 67.4159 130.896 67.6406C130.896 67.8653 130.672 67.9777 130.559 68.09C130.447 68.2024 130.222 68.3148 129.997 68.3148C129.773 68.4271 129.436 68.4271 129.099 68.4271C128.649 68.4271 128.2 68.4271 127.975 68.3148C127.75 68.2024 127.525 68.09 127.301 67.8653C127.188 67.6406 127.076 67.4159 127.076 67.1912C127.076 66.9664 126.964 66.517 126.964 66.0676V64.4945C126.964 64.0451 126.964 63.708 127.076 63.4833C127.076 63.2585 127.188 63.0338 127.301 62.8091C127.413 62.5844 127.638 62.472 127.975 62.3597C128.2 62.2473 128.649 62.2473 129.099 62.2473C129.548 62.2473 129.885 62.2473 130.222 62.3597C130.447 62.472 130.672 62.5844 130.896 62.8091C131.009 63.0338 131.121 63.2585 131.121 63.4833C131.121 63.708 131.233 64.0451 131.233 64.4945V66.0676L131.121 66.3121Z" fill="white"/>
<path d="M145.392 65.8423H149.774V64.494H145.392V62.4715H149.887V60.8984H143.707V69.7749H149.887V68.3142H145.392V65.8423Z" fill="white"/>
<path d="M167.642 65.8428C167.53 65.5058 167.193 65.1687 166.743 65.0563C166.406 64.944 165.732 64.8316 164.945 64.7192C164.159 64.6069 163.709 64.6069 163.597 64.4945C163.26 64.3822 163.035 64.2698 162.923 64.1574C162.811 63.9327 162.698 63.708 162.698 63.3709C162.698 62.9215 162.811 62.6967 163.035 62.472C163.26 62.3597 163.709 62.2473 164.384 62.2473C165.058 62.2473 165.395 62.3597 165.732 62.472C165.957 62.5844 166.069 62.9215 166.069 63.2585C166.069 63.4833 166.069 63.5956 166.069 63.5956H167.642C167.642 63.4833 167.642 63.2585 167.642 63.0338C167.642 62.1349 167.417 61.5731 166.968 61.2361C166.518 60.899 165.62 60.7866 164.496 60.7866C163.148 60.7866 162.249 61.0113 161.687 61.3484C161.125 61.6855 160.9 62.3597 160.9 63.2585C160.9 63.708 161.013 64.0451 161.125 64.2698C161.237 64.6069 161.35 64.8316 161.575 64.9439C161.687 65.0563 162.024 65.281 162.249 65.3934C162.586 65.5058 162.811 65.6181 163.035 65.6181C163.26 65.6181 163.597 65.7305 164.046 65.7305C164.608 65.8428 165.058 65.9552 165.395 66.0676C165.62 66.1799 165.844 66.2923 165.957 66.517C166.069 66.6294 166.069 66.8541 166.069 67.1912C166.069 67.6406 165.957 67.8653 165.732 68.09C165.507 68.3148 165.058 68.4271 164.384 68.4271C163.597 68.4271 163.148 68.3148 162.923 68.2024C162.698 68.09 162.586 67.753 162.586 67.3035C162.586 67.1912 162.586 66.9664 162.586 66.8541H160.9C160.9 67.0788 160.9 67.3035 160.9 67.5282C160.9 68.4271 161.125 68.9889 161.687 69.326C162.249 69.6631 163.148 69.7754 164.384 69.7754C165.62 69.7754 166.518 69.5507 167.08 69.2136C167.53 68.8766 167.867 68.09 167.867 67.0788C167.867 66.6294 167.754 66.1799 167.642 65.8428Z" fill="white"/>
<path d="M86.8541 60.8984H84.8316H82.3597H81.6855V62.3591H82.4721V69.7749H86.9665C88.0901 69.7749 88.8766 69.4378 89.2137 68.876C89.6631 68.3142 89.7755 67.303 89.7755 65.8423V64.7187C89.7755 63.258 89.5508 62.2468 89.2137 61.685C88.7642 61.2355 87.9777 60.8984 86.8541 60.8984ZM88.0901 66.2917C88.0901 67.0782 87.9777 67.6401 87.8654 67.8648C87.6406 68.2019 87.3036 68.3142 86.8541 68.3142H84.2698V62.3591H84.944H86.8541C87.3036 62.3591 87.6406 62.4715 87.8654 62.8086C88.0901 63.1456 88.0901 63.7074 88.0901 64.3816V66.2917Z" fill="white"/>
<path d="M141.687 62.4719C141.687 62.1348 141.575 61.9101 141.35 61.573C141.238 61.3483 140.901 61.1236 140.676 61.1236C140.339 61.0112 140.002 61.0112 139.44 61.0112H137.418H134.946H134.271V62.4719H134.946V69.8877H136.631V66.9663H139.328C139.889 66.9663 140.339 66.9663 140.676 66.854C141.013 66.7416 141.238 66.6292 141.463 66.4045C141.687 66.1798 141.8 65.8427 141.8 65.618C141.8 65.2809 141.912 64.9438 141.912 64.382V63.9326C141.8 63.1461 141.8 62.6966 141.687 62.4719ZM140.114 64.382C140.114 64.8315 140.002 65.0562 139.889 65.2809C139.777 65.5056 139.552 65.5056 139.103 65.5056H136.519V62.3596H139.103C139.44 62.3596 139.777 62.4719 139.889 62.6966C140.002 62.9214 140.002 63.2584 140.002 63.7079V64.382H140.114Z" fill="white"/>
<path d="M158.988 68.2019V67.1906C158.988 66.6288 158.876 66.1794 158.651 66.067C158.426 65.8423 158.089 65.7299 157.64 65.6176C158.089 65.5052 158.539 65.3928 158.763 65.0558C158.988 64.7187 159.1 64.2692 159.1 63.5951V63.3704C159.1 62.4715 158.876 61.7973 158.426 61.4602C157.977 61.1232 157.303 60.8984 156.404 60.8984H154.718H152.134H151.572V62.3591H152.134V69.7749H153.819V66.2917H156.404C156.853 66.2917 157.078 66.4041 157.303 66.5165C157.415 66.6288 157.527 66.9659 157.527 67.303V68.3142C157.527 68.9884 157.527 69.4378 157.64 69.7749H159.325C158.988 69.3255 158.988 68.7637 158.988 68.2019ZM157.303 63.8198C157.303 64.2692 157.19 64.494 157.078 64.7187C156.966 64.9434 156.628 64.9434 156.179 64.9434H153.595V62.2468H154.494H156.067C156.404 62.2468 156.741 62.3591 156.853 62.4715C156.966 62.6962 157.078 62.9209 157.078 63.3704H157.303V63.8198Z" fill="white"/>
</svg>
