<svg width="150" height="63" viewBox="0 0 150 63" fill="none" xmlns="http://www.w3.org/2000/svg">
<path d="M58.3 0H3.89999C1.69999 0 0 1.80001 0 3.90001V58.3C0 60.5 1.79999 62.2 3.89999 62.2H58.3C60.5 62.2 62.2 60.4 62.2 58.3V3.90001C62.2 1.70001 60.5 0 58.3 0ZM19.6 47.7L26 36.6L13.2 14.4H42.6L36.2 25.5L49 47.7H19.6Z" fill="#00CC61"/>
<path d="M19.0996 17.8999L27.8996 33.0999L36.6996 17.8999H19.0996Z" fill="#00CC61"/>
<path d="M42.6002 14.5H13.2002L26.0002 36.7L19.6002 47.8H49.0002L36.2002 25.6L42.6002 14.5ZM19.1002 17.9H36.7002L27.9002 33.2L19.1002 17.9Z" fill="white"/>
<path d="M72.7004 31.9998H81.2004C81.1004 32.8998 81.1004 33.6998 81.1004 34.3998C81.1004 36.3998 81.8004 37.8998 83.1004 38.7998C84.4004 39.6998 87.0004 40.0998 90.8004 40.0998C94.2004 40.0998 96.5004 39.5998 97.8004 38.5998C99.1004 37.5998 99.7004 35.9998 99.7004 33.8998C99.7004 32.2998 99.4004 31.0998 98.9004 30.2998C98.4004 29.4998 97.4004 28.7998 96.0004 28.1998C94.3004 27.5998 91.9004 26.9998 88.8004 26.3998C86.6004 26.0998 85.0004 25.7998 83.8004 25.5998C82.6004 25.3998 81.2004 24.8998 79.6004 24.2998C78.0004 23.6998 76.7004 22.8998 75.9004 22.0998C75.1004 21.2998 74.4004 20.0998 73.7004 18.4998C73.1004 16.9998 72.8004 15.1998 72.8004 13.0998C72.8004 8.09981 74.2004 4.69981 76.9004 2.89981C79.7004 1.19981 84.4004 0.299805 91.2004 0.299805C97.2004 0.299805 101.5 1.09981 103.9 2.59981C106.3 4.09981 107.6 7.09981 107.6 11.6998C107.6 12.8998 107.5 13.7998 107.4 14.4998H99.2004C99.2004 14.0998 99.3004 13.4998 99.3004 12.5998C99.3004 10.7998 98.7004 9.49981 97.5004 8.69981C96.3004 7.89981 94.1004 7.4998 90.8004 7.4998C87.3004 7.4998 84.9004 7.8998 83.6004 8.7998C82.3004 9.6998 81.6004 11.0998 81.6004 13.1998C81.6004 14.9998 82.0004 16.2998 82.7004 17.1998C83.4004 18.0998 84.7004 18.6998 86.5004 19.0998C87.1004 19.1998 89.4004 19.4998 93.5004 19.9998C97.6004 20.4998 100.6 21.0998 102.5 21.8998C104.7 22.8998 106.2 24.2998 107.1 26.1998C108 28.0998 108.4 30.3998 108.4 33.2998C108.4 38.5998 107.1 42.2998 104.5 44.2998C101.9 46.2998 97.3004 47.2998 90.6004 47.2998C83.9004 47.2998 79.2004 46.3998 76.5004 44.6998C73.7004 42.9998 72.4004 39.8998 72.4004 35.2998C72.6004 34.1998 72.6004 33.0998 72.7004 31.9998Z" fill="white"/>
<path d="M116.201 0.899902H148.901V7.99989L125.401 39.0999H149.401V46.5999H114.801V39.0999L138.401 8.3999H116.201V0.899902Z" fill="white"/>
<path d="M83.2998 58.5997H87.1998V57.3997H83.2998V55.5997H87.2998V54.1997H81.7998V62.0997H87.2998V60.7997H83.2998V58.5997Z" fill="white"/>
<path d="M92.3998 60.2997L90.3998 54.1997H88.7998L91.5998 62.0997H93.1998L96.0998 54.1997H94.4998L92.3998 60.2997Z" fill="white"/>
<path d="M99.1002 58.5997H103V57.3997H99.1002V55.5997H103.1V54.1997H97.7002V62.0997H103.2V60.7997H99.1002V58.5997Z" fill="white"/>
<path d="M106.6 54.1997H105V62.0997H110.1V60.7997H106.6V54.1997Z" fill="white"/>
<path d="M118.001 55.7996C117.901 55.4996 117.801 55.1996 117.701 54.9996C117.601 54.7996 117.401 54.6996 117.101 54.4996C116.801 54.3996 116.501 54.2996 116.201 54.1996C115.801 54.0996 115.401 54.0996 114.901 54.0996C114.401 54.0996 113.901 54.0996 113.601 54.1996C113.201 54.1996 112.901 54.2996 112.701 54.4996C112.401 54.5996 112.201 54.7996 112.101 54.9996C112.001 55.1996 111.801 55.3996 111.801 55.7996C111.701 56.0996 111.701 56.4996 111.601 56.7996C111.601 57.0996 111.601 57.5996 111.601 58.1996C111.601 58.7996 111.601 59.1996 111.601 59.5996C111.601 59.8996 111.701 60.2996 111.801 60.5996C111.901 60.8996 112.001 61.1996 112.101 61.3996C112.201 61.5996 112.401 61.6996 112.701 61.8996C113.001 61.9996 113.301 62.0996 113.601 62.1996C114.001 62.1996 114.401 62.2996 114.901 62.2996C115.301 62.2996 115.601 62.2996 115.901 62.2996C116.201 62.2996 116.501 62.1996 116.701 62.1996C116.901 62.0996 117.101 61.9996 117.301 61.8996C117.501 61.7996 117.601 61.6996 117.701 61.4996C117.801 61.2996 117.901 61.1996 118.001 60.9996C118.101 60.7996 118.101 60.5996 118.201 60.2996C118.201 59.9996 118.301 59.6996 118.301 59.3996C118.301 59.0996 118.301 58.7996 118.301 58.2996C118.301 57.6996 118.301 57.2996 118.301 56.8996C118.101 56.3996 118.101 56.0996 118.001 55.7996ZM116.601 58.7996C116.601 59.0996 116.601 59.3996 116.601 59.5996C116.601 59.7996 116.501 59.9996 116.501 60.1996C116.501 60.3996 116.301 60.4996 116.201 60.5996C116.101 60.6996 115.901 60.7996 115.701 60.7996C115.501 60.8996 115.201 60.8996 114.901 60.8996C114.501 60.8996 114.101 60.8996 113.901 60.7996C113.701 60.6996 113.501 60.5996 113.301 60.3996C113.201 60.1996 113.101 59.9996 113.101 59.7996C113.101 59.5996 113.001 59.1996 113.001 58.7996V57.3996C113.001 56.9996 113.001 56.6996 113.101 56.4996C113.101 56.2996 113.201 56.0996 113.301 55.8996C113.401 55.6996 113.601 55.5996 113.901 55.4996C114.101 55.3996 114.501 55.3996 114.901 55.3996C115.301 55.3996 115.601 55.3996 115.901 55.4996C116.101 55.5996 116.301 55.6996 116.501 55.8996C116.601 56.0996 116.701 56.2996 116.701 56.4996C116.701 56.6996 116.801 56.9996 116.801 57.3996V58.7996H116.601Z" fill="white"/>
<path d="M129.4 58.5997H133.3V57.3997H129.4V55.5997H133.4V54.1997H127.9V62.0997H133.4V60.7997H129.4V58.5997Z" fill="white"/>
<path d="M149.2 58.5996C149.1 58.2996 148.8 57.9996 148.4 57.8996C148.1 57.7996 147.5 57.6996 146.8 57.5996C146.1 57.4996 145.7 57.4996 145.6 57.3996C145.3 57.2996 145.1 57.1996 145 57.0996C144.9 56.8996 144.8 56.6996 144.8 56.3996C144.8 55.9996 144.9 55.7996 145.1 55.5996C145.3 55.4996 145.7 55.3996 146.3 55.3996C146.9 55.3996 147.2 55.4996 147.5 55.5996C147.7 55.6996 147.8 55.9996 147.8 56.2996C147.8 56.4996 147.8 56.5996 147.8 56.5996H149.2C149.2 56.4996 149.2 56.2996 149.2 56.0996C149.2 55.2996 149 54.7996 148.6 54.4996C148.2 54.1996 147.4 54.0996 146.4 54.0996C145.2 54.0996 144.4 54.2996 143.9 54.5996C143.4 54.8996 143.2 55.4996 143.2 56.2996C143.2 56.6996 143.3 56.9996 143.4 57.1996C143.5 57.4996 143.6 57.6996 143.8 57.7996C143.9 57.8996 144.2 58.0996 144.4 58.1996C144.7 58.2996 144.9 58.3996 145.1 58.3996C145.3 58.3996 145.6 58.4996 146 58.4996C146.5 58.5996 146.9 58.6996 147.2 58.7996C147.4 58.8996 147.6 58.9996 147.7 59.1996C147.8 59.2996 147.8 59.4996 147.8 59.7996C147.8 60.1996 147.7 60.3996 147.5 60.5996C147.3 60.7996 146.9 60.8996 146.3 60.8996C145.6 60.8996 145.2 60.7996 145 60.6996C144.8 60.5996 144.7 60.2996 144.7 59.8996C144.7 59.7996 144.7 59.5996 144.7 59.4996H143.2C143.2 59.6996 143.2 59.8996 143.2 60.0996C143.2 60.8996 143.4 61.3996 143.9 61.6996C144.4 61.9996 145.2 62.0996 146.3 62.0996C147.4 62.0996 148.2 61.8996 148.7 61.5996C149.1 61.2996 149.4 60.5996 149.4 59.6996C149.4 59.2996 149.3 58.8996 149.2 58.5996Z" fill="white"/>
<path d="M77.3002 54.1997H75.5002H73.3002H72.7002V55.4997H73.4002V62.0997H77.4002C78.4002 62.0997 79.1002 61.7997 79.4002 61.2997C79.8002 60.7997 79.9002 59.8997 79.9002 58.5997V57.5997C79.9002 56.2997 79.7002 55.3997 79.4002 54.8997C79.0002 54.4997 78.3002 54.1997 77.3002 54.1997ZM78.4002 58.9997C78.4002 59.6997 78.3002 60.1997 78.2002 60.3997C78.0002 60.6997 77.7002 60.7997 77.3002 60.7997H75.0002V55.4997H75.6002H77.3002C77.7002 55.4997 78.0002 55.5997 78.2002 55.8997C78.4002 56.1997 78.4002 56.6997 78.4002 57.2997V58.9997Z" fill="white"/>
<path d="M126.1 55.5998C126.1 55.2998 126 55.0998 125.8 54.7998C125.7 54.5998 125.4 54.3998 125.2 54.3998C124.9 54.2998 124.6 54.2998 124.1 54.2998H122.3H120.1H119.5V55.5998H120.1V62.1998H121.6V59.5998H124C124.5 59.5998 124.9 59.5998 125.2 59.4998C125.5 59.3998 125.7 59.2998 125.9 59.0998C126.1 58.8998 126.2 58.5998 126.2 58.3998C126.2 58.0998 126.3 57.7998 126.3 57.2998V56.8998C126.2 56.1998 126.2 55.7998 126.1 55.5998ZM124.7 57.2998C124.7 57.6998 124.6 57.8998 124.5 58.0998C124.4 58.2998 124.2 58.2998 123.8 58.2998H121.5V55.4998H123.8C124.1 55.4998 124.4 55.5998 124.5 55.7998C124.6 55.9998 124.6 56.2998 124.6 56.6998V57.2998H124.7Z" fill="white"/>
<path d="M141.5 60.6997V59.7997C141.5 59.2997 141.4 58.8997 141.2 58.7997C141 58.5997 140.7 58.4997 140.3 58.3997C140.7 58.2997 141.1 58.1997 141.3 57.8997C141.5 57.5997 141.6 57.1997 141.6 56.5997V56.3997C141.6 55.5997 141.4 54.9997 141 54.6997C140.6 54.3997 140 54.1997 139.2 54.1997H137.7H135.4H134.9V55.4997H135.4V62.0997H136.9V58.9997H139.2C139.6 58.9997 139.8 59.0997 140 59.1997C140.1 59.2997 140.2 59.5997 140.2 59.8997V60.7997C140.2 61.3997 140.2 61.7997 140.3 62.0997H141.8C141.5 61.6997 141.5 61.1997 141.5 60.6997ZM140 56.7997C140 57.1997 139.9 57.3997 139.8 57.5997C139.7 57.7997 139.4 57.7997 139 57.7997H136.7V55.3997H137.5H138.9C139.2 55.3997 139.5 55.4997 139.6 55.5997C139.7 55.7997 139.8 55.9997 139.8 56.3997V56.7997H140Z" fill="white"/>
</svg>
