<svg width="32" height="22" viewBox="0 0 32 22" fill="none" xmlns="http://www.w3.org/2000/svg">
<path d="M18.9584 0.625H5.62503C4.07189 0.625 3.29488 0.625 2.68231 0.878733C1.86554 1.21705 1.21705 1.86635 0.878735 2.6831C0.625 3.29568 0.625 4.07225 0.625 5.62538C3.38643 5.62538 5.62503 7.86317 5.62503 10.6247C5.62503 13.386 3.38643 15.625 0.625 15.625C0.625 17.1782 0.625 17.9547 0.878735 18.5673C1.21705 19.384 1.86554 20.0328 2.68231 20.3712C3.29488 20.6248 4.07189 20.625 5.62503 20.625H18.9584M18.9584 0.625H25.6251C27.1783 0.625 27.9548 0.625 28.5675 0.878733C29.3842 1.21705 30.033 1.86635 30.3713 2.6831C30.625 3.29567 30.625 4.07225 30.625 5.62538C27.8635 5.62538 25.6251 7.8635 25.6251 10.625C25.6251 13.3865 27.8635 15.625 30.625 15.625C30.625 17.1782 30.625 17.9547 30.3713 18.5673C30.033 19.384 29.3842 20.0328 28.5675 20.3712C27.9548 20.6248 27.1783 20.625 25.6251 20.625H18.9584M18.9584 0.625V20.625" stroke="#805C23" stroke-width="1.25" stroke-linecap="round" stroke-linejoin="round"/>
</svg>
